<svg id="card-tick" xmlns="http://www.w3.org/2000/svg" width="52.463" height="52.463" viewBox="0 0 52.463 52.463">
  <path id="Vector" d="M0,2.645v10.93a9.04,9.04,0,0,0,9.05,9.05h25.6a9.077,9.077,0,0,0,9.072-9.072V2.645A2.64,2.64,0,0,0,41.074,0H2.645A2.64,2.64,0,0,0,0,2.645ZM13.116,15.3H8.744a1.639,1.639,0,0,1,0-3.279h4.372a1.639,1.639,0,1,1,0,3.279Zm14.209,0H18.581a1.639,1.639,0,1,1,0-3.279h8.744a1.639,1.639,0,0,1,0,3.279Z" transform="translate(4.372 22.406)" fill="#dd3951"/>
  <path id="Vector-2" data-name="Vector" d="M25.139,2.645v6.4a2.64,2.64,0,0,1-2.645,2.645H2.645A2.664,2.664,0,0,1,0,9.006,9.031,9.031,0,0,1,9.05,0H22.494A2.64,2.64,0,0,1,25.139,2.645Z" transform="translate(4.372 7.432)" fill="#dd3951"/>
  <path id="Vector-3" data-name="Vector" d="M10.864,0H4.438A4.08,4.08,0,0,0,0,4.438v6.427A4.08,4.08,0,0,0,4.438,15.3h6.427A4.08,4.08,0,0,0,15.3,10.864V4.438A4.08,4.08,0,0,0,10.864,0Zm1.443,5.356L7.126,11.411a1.071,1.071,0,0,1-.809.393H6.274a1.123,1.123,0,0,1-.809-.328L3.06,9.115a1.135,1.135,0,0,1,0-1.6,1.115,1.115,0,0,1,1.6,0l1.53,1.508,4.372-5.115a1.139,1.139,0,0,1,1.6-.131A1.1,1.1,0,0,1,12.307,5.356Z" transform="translate(32.789 4.372)" fill="#dd3951"/>
  <path id="Vector-4" data-name="Vector" d="M0,0H52.463V52.463H0Z" fill="none" opacity="0"/>
</svg>
