<svg xmlns="http://www.w3.org/2000/svg" width="116.186" height="31.507" viewBox="0 0 116.186 31.507">
  <path id="digikala-svgrepo-com" d="M42.888,8.747c-1.936.077-3.887-.1-5.819.087Q32.007,14.9,26.985,20.995c2.014,2.663,4.26,5.132,6.269,7.794-2.556.01-5.112-.034-7.664.029a1.956,1.956,0,0,1-1.143-1.859c-.034-6.056.01-12.117-.019-18.169-1.448-.034-2.9-.024-4.338-.024-.048,6.574,0,13.149-.024,19.723a4.8,4.8,0,0,0,4.89,4.783c5.935,0,11.871.024,17.806-.015-3.263-4.13-6.647-8.167-9.982-12.243,3.379-4.081,6.836-8.1,10.108-12.267ZM13,8.756c-.044,5.209,0,10.418-.019,15.627a12.583,12.583,0,0,1-.31,4.086,5.611,5.611,0,0,1-1.849.324c-3.612-.01-7.213-.01-10.825-.01v4.488c4.231-.01,8.462.019,12.694-.01a5.023,5.023,0,0,0,4.783-5.156c-.019-6.439.024-12.882-.019-19.326C15.971,8.752,14.49,8.756,13,8.756ZM0,8.766V26.243H4.473V8.766ZM100.793,15.9c-.044,1.414-.179,2.818-.136,4.236,3.447-.015,6.9.019,10.35-.019.358.5,1.113.881.988,1.6-.126,2.314.315,4.7-.32,6.957-3.65.441-7.349-.087-11.009.339a30.63,30.63,0,0,0,.121,4.163c2.813-.116,5.63-.029,8.443-.053,1.481-.039,3.113.252,4.42-.629a4.516,4.516,0,0,0,2.532-4.372c-.024-2.934.034-5.872-.039-8.811l-.363.082a3.053,3.053,0,0,0-.436-1.569l-.218.058a.99.99,0,0,0-.9-.867l.082-.252a5.174,5.174,0,0,0-1.583-.46l.1-.32c-4.013-.116-8.022.044-12.03-.087Zm-33.2.01c-.082,1.409-.15,2.818-.111,4.226,3.069-.029,6.143.048,9.208-.044l-.058.257c.852.179.775,1.113.823,1.786.015,2.251,0,4.5,0,6.758-4.735.136-9.5-.3-14.223.126a4.192,4.192,0,0,0-1.143-.823q-.07-3.88,0-7.76c-1.385.082-3.069-.62-4.27.16-.2,2.658.232,5.349-.29,7.978a8.93,8.93,0,0,1-1.99.286c-4.343.024-8.69-.116-13.023.121,1.428,1.181,2.4,2.8,3.67,4.144H57.043c1.288.082,2.372-.8,3.655-.775l-.16.436a13.292,13.292,0,0,0,2.469.339H94.122l-.024-.29,1.239-.208a10.234,10.234,0,0,0,2-2.009l.213-1.23.3.01c.024-2.987-.048-5.979.044-8.966a17.414,17.414,0,0,0-4.168-.039c-.533,2.721.3,5.567-.339,8.274-3.863.4-7.756.111-11.628.169-.116-3.292.242-6.6-.315-9.866l-.47.034.276-.668-.416-.087a2.808,2.808,0,0,0-1.622-1.622l-.063-.213a7.371,7.371,0,0,0-2.324-.46c-3.074-.019-6.153.048-9.232-.039ZM49.031,35.9a4.648,4.648,0,0,0-1.515.213,11.9,11.9,0,0,0-.039,4.144c1.385-.068,2.774-.058,4.163-.029-.034-1.385-.034-2.769.015-4.154C50.8,36.051,49.9,35.9,49.031,35.9Zm38.816.029c-1.385.145-2.784.126-4.173.145.058,1.38.048,2.769.024,4.159,1.389-.034,2.779-.039,4.168.024q-.046-2.164-.019-4.328Zm-31.627,0c-1.06,0-2.116.063-3.176.121.063,1.4.053,2.8.019,4.2,1.4-.063,2.818-.063,4.231,0q-.044-2.154-.014-4.309-.532-.015-1.065-.015Zm34.668.019a7.794,7.794,0,0,0-1.535.136c.048,1.375.039,2.755.029,4.13,1.351-.01,2.7-.015,4.057.034.063-1.394.1-2.784.024-4.178-.857-.019-1.714-.116-2.576-.116Zm-16.857.034a6.992,6.992,0,0,0-1.08.092c.039,1.38.034,2.759.024,4.144q2.149-.015,4.3,0c0-1.375-.015-2.75.015-4.125C76.2,36.133,75.116,35.964,74.031,35.978Z" transform="translate(0 -8.746)" fill="#a1a1a1"/>
</svg>
