<svg xmlns="http://www.w3.org/2000/svg" width="91.65" height="137.757" viewBox="0 0 91.65 137.757">
  <g id="Group_1303" data-name="Group 1303" transform="translate(-92.579 -2590.211)" opacity="0.14">
    <g id="Group_1301" data-name="Group 1301" transform="matrix(-0.643, 0.766, -0.766, -0.643, 204.573, 2649.125)">
      <g id="Group_4700" data-name="Group 4700" transform="translate(51.417 -0.409)">
        <path id="Path_7055" data-name="Path 7055" d="M0,4.086A4.086,4.086,0,1,0,4.085,0,4.086,4.086,0,0,0,0,4.086" transform="translate(14.24 21.807)" fill="#dd3951"/>
        <path id="Path_7056" data-name="Path 7056" d="M23.027.005H21.975A22.481,22.481,0,0,0,.7,15.236a18.754,18.754,0,0,0-.683,3.919c-.03,6.04,0,25.152,0,25.152s19.787.019,24.514,0H26.4a11.742,11.742,0,0,0,2.588-.416A22.586,22.586,0,0,0,44.449,22.482c0-.685-.087-8.719-.082-12.773h6.8V0ZM9.344,22.388a12.634,12.634,0,1,1,12.631,12.73s-8.329.017-12.631.017V22.388" transform="translate(0 0)" fill="#dd3951"/>
      </g>
      <g id="Group_4700-2" data-name="Group 4700" transform="translate(-1.623 45.402)">
        <path id="Path_7055-2" data-name="Path 7055" d="M8.172,4.086A4.086,4.086,0,1,0,4.086,8.172,4.086,4.086,0,0,0,8.172,4.086" transform="translate(28.752 14.337)" fill="#dd3951"/>
        <path id="Path_7056-2" data-name="Path 7056" d="M28.137,44.311h1.052A22.481,22.481,0,0,0,50.468,29.08a18.757,18.757,0,0,0,.683-3.919c.03-6.04,0-25.152,0-25.152s-19.787-.019-24.514,0h-1.87a11.743,11.743,0,0,0-2.588.416A22.586,22.586,0,0,0,6.715,21.835c0,.685.087,8.719.082,12.773H0v9.709ZM41.82,21.928A12.634,12.634,0,1,1,29.189,9.2s8.329-.017,12.631-.017V21.928" transform="translate(0 0)" fill="#dd3951"/>
      </g>
    </g>
    <g id="Group_4700-3" data-name="Group 4700" transform="translate(111.267 2638) rotate(42)">
      <path id="Path_7055-3" data-name="Path 7055" d="M5.15,2.575A2.575,2.575,0,1,0,2.575,5.15,2.575,2.575,0,0,0,5.15,2.575" transform="translate(18.12 9.036)" fill="#dd3951"/>
      <path id="Path_7056-3" data-name="Path 7056" d="M17.732,27.926H18.4a14.168,14.168,0,0,0,13.41-9.6,11.821,11.821,0,0,0,.43-2.47c.019-3.806,0-15.851,0-15.851s-12.47-.012-15.449,0H15.608a7.4,7.4,0,0,0-1.631.262A14.234,14.234,0,0,0,4.232,13.76c0,.432.055,5.495.052,8.05H0v6.119Zm8.623-14.106A7.962,7.962,0,1,1,18.4,5.8s5.249-.01,7.96-.01v8.033" transform="translate(0 0)" fill="#dd3951"/>
    </g>
    <g id="Group_4700-4" data-name="Group 4700" transform="translate(165.541 2680.33) rotate(-138)">
      <path id="Path_7055-4" data-name="Path 7055" d="M5.15,2.575A2.575,2.575,0,1,0,2.575,5.15,2.575,2.575,0,0,0,5.15,2.575" transform="translate(18.12 9.036)" fill="#dd3951"/>
      <path id="Path_7056-4" data-name="Path 7056" d="M17.732,27.925h.663a14.168,14.168,0,0,0,13.41-9.6,11.821,11.821,0,0,0,.43-2.47c.019-3.806,0-15.851,0-15.851s-12.47-.012-15.449,0H15.608a7.4,7.4,0,0,0-1.631.262A14.234,14.234,0,0,0,4.232,13.76c0,.432.055,5.495.052,8.05H0v6.119Zm8.624-14.106A7.962,7.962,0,1,1,18.4,5.8s5.249-.01,7.96-.011v8.033" transform="translate(0 0)" fill="#dd3951"/>
    </g>
  </g>
</svg>
