<svg xmlns="http://www.w3.org/2000/svg" width="936" height="392.04" viewBox="0 0 936 392.04">
  <g id="Group_1528" data-name="Group 1528" transform="translate(-211.001 -1063.239)">
    <path id="Subtraction_2" data-name="Subtraction 2" d="M270,289H35A34.97,34.97,0,0,1,0,254V35A34.97,34.97,0,0,1,35,0H65.933A23.3,23.3,0,0,0,69.1.2C69.917.2,70.777.168,71.661.1,72.185.055,72.688.023,73.2,0h3.618c14.906.723,21.037,10.5,26.445,19.126,1.367,2.179,2.657,4.238,4.042,6.085a53.447,53.447,0,0,0,45.069,24.677,53.6,53.6,0,0,0,44.249-23.442,70.054,70.054,0,0,0,5.014-7.324C207.044,10.5,213.173.721,228.081,0H231.7c.506.023,1.024.056,1.539.1.886.071,1.747.107,2.559.107a23.232,23.232,0,0,0,3.167-.2H270a34.97,34.97,0,0,1,35,35V254a34.971,34.971,0,0,1-35,35Z" transform="translate(842.001 1110.239)" fill="#f3f3f3"/>
    <text id="به_پنل_کاربریت_در_سایت_یا_اپلیکیشن_تخفیفان_واردشو" data-name="به پنل کاربریت در سایت 
یا اپلیکیشن تخفیفان واردشو" transform="translate(995.001 1281.238)" fill="#342d2d" font-size="16" font-family="SegoeUI, Segoe UI"><tspan x="-80.426" y="0">به پنل کاربریت در سایت</tspan><tspan y="0"> </tspan><tspan x="-88.734" y="21">یا اپلیکیشن تخفیفان واردشو</tspan></text>
    <ellipse id="Ellipse_705" data-name="Ellipse 705" cx="42" cy="41.5" rx="42" ry="41.5" transform="translate(953.001 1063.239)" fill="#ccc" opacity="0.28"/>
    <text id="مرحله_اول" data-name="مرحله اول" transform="translate(948.001 1211.238)" fill="#dd3951" font-size="22" font-family="SegoeUI-Bold, Segoe UI" font-weight="700"><tspan x="0" y="0">مرحله اول</tspan></text>
    <path id="Subtraction_2-2" data-name="Subtraction 2" d="M270,289H35A34.97,34.97,0,0,1,0,254V35A34.97,34.97,0,0,1,35,0H65.933A23.3,23.3,0,0,0,69.1.2C69.917.2,70.777.168,71.661.1,72.185.055,72.688.023,73.2,0h3.618c14.906.723,21.037,10.5,26.445,19.126,1.367,2.179,2.657,4.238,4.042,6.085a53.447,53.447,0,0,0,45.069,24.677,53.6,53.6,0,0,0,44.249-23.442,70.054,70.054,0,0,0,5.014-7.324C207.044,10.5,213.173.721,228.081,0H231.7c.506.023,1.024.056,1.539.1.886.071,1.747.107,2.559.107a23.232,23.232,0,0,0,3.167-.2H270a34.97,34.97,0,0,1,35,35V254a34.971,34.971,0,0,1-35,35Z" transform="translate(526.001 1110.239)" fill="#f3f3f3"/>
    <ellipse id="Ellipse_705-2" data-name="Ellipse 705" cx="42" cy="41.5" rx="42" ry="41.5" transform="translate(636.001 1063.239)" fill="#ccc" opacity="0.28"/>
    <text id="مرحله_دوم" data-name="مرحله دوم" transform="translate(633.001 1210.238)" fill="#dd3951" font-size="21" font-family="SegoeUI-Bold, Segoe UI" font-weight="700"><tspan x="0" y="0">مرحله دوم</tspan></text>
    <path id="Subtraction_2-3" data-name="Subtraction 2" d="M270,289H35A34.97,34.97,0,0,1,0,254V35A34.97,34.97,0,0,1,35,0H65.933A23.3,23.3,0,0,0,69.1.2C69.917.2,70.777.168,71.661.1,72.185.055,72.688.023,73.2,0h3.618c14.906.723,21.037,10.5,26.445,19.126,1.367,2.179,2.657,4.238,4.042,6.085a53.447,53.447,0,0,0,45.069,24.677,53.6,53.6,0,0,0,44.249-23.442,70.054,70.054,0,0,0,5.014-7.324C207.044,10.5,213.173.721,228.081,0H231.7c.506.023,1.024.056,1.539.1.886.071,1.747.107,2.559.107a23.232,23.232,0,0,0,3.167-.2H270a34.97,34.97,0,0,1,35,35V254a34.971,34.971,0,0,1-35,35Z" transform="translate(211.001 1110.239)" fill="#f3f3f3"/>
    <ellipse id="Ellipse_705-3" data-name="Ellipse 705" cx="42" cy="41.5" rx="42" ry="41.5" transform="translate(321.001 1063.239)" fill="#ccc" opacity="0.28"/>
    <text id="مرحله_سوم" data-name="مرحله سوم" transform="translate(312.001 1211.238)" fill="#dd3951" font-size="22" font-family="SegoeUI-Bold, Segoe UI" font-weight="700"><tspan x="0" y="0">مرحله سوم</tspan></text>
    <text id="روی_دکمه_کارت_های_بانکی_کلیک_کن_و_شماره_کارتت_رو_ثبت_کن" data-name="روی دکمه &quot; کارت‌های بانکی&quot; کلیک کن 
و شماره کارتت رو ثبت کن" transform="translate(679.001 1281.238)" fill="#342d2d" font-size="16" font-family="SegoeUI, Segoe UI"><tspan x="-124.48" y="0">روی دکمه &quot; کارت‌های بانکی&quot; کلیک کن</tspan><tspan y="0"> </tspan><tspan x="-82.43" y="21">و شماره کارتت رو ثبت کن</tspan></text>
    <text id="بعد_از_تایید_کارت_بانکی_میتونی_به_صورت_حضوری_از_فروشگاه_های_مد_نظرت_خرید_کنی" data-name="بعد از تایید کارت بانکی، میتونی
 به صورت حضوری از فروشگاه‌های
 مد نظرت خرید کنی" transform="translate(364.001 1281.238)" fill="#342d2d" font-size="16" font-family="SegoeUI, Segoe UI"><tspan x="-101.137" y="0">بعد از تایید کارت بانکی، میتونی</tspan><tspan y="0"></tspan><tspan x="-111.152" y="21"> </tspan><tspan y="21">به صورت حضوری از فروشگاه‌های</tspan><tspan y="21"></tspan><tspan x="-65.547" y="42"> </tspan><tspan y="42">مد نظرت خرید کنی</tspan></text>
    <g id="vuesax_bold_card-tick" data-name="vuesax/bold/card-tick" transform="translate(654.822 1081.439)">
      <g id="card-tick" transform="translate(0 0)">
        <path id="Vector" d="M0,0H47.31V47.31H0Z" fill="none" opacity="0"/>
        <path id="Vector-2" data-name="Vector" d="M7.857,0A7.855,7.855,0,0,0,0,7.857,7.7,7.7,0,0,0,1.139,11.9a7.827,7.827,0,0,0,13.436,0,7.7,7.7,0,0,0,1.139-4.046A7.855,7.855,0,0,0,7.857,0Zm4.066,7.012-4.184,3.87a1.5,1.5,0,0,1-1,.393A1.457,1.457,0,0,1,5.7,10.843L3.752,8.9A1.472,1.472,0,0,1,5.834,6.816l.943.943L9.919,4.852a1.473,1.473,0,0,1,2,2.161Z" transform="translate(29.632 29.632)" fill="#dd3951"/>
        <path id="Vector-3" data-name="Vector" d="M39.453,8.152v.884A1.974,1.974,0,0,1,37.48,11H1.973A1.974,1.974,0,0,1,0,9.036v-.9A8.141,8.141,0,0,1,8.167,0h23.1A8.174,8.174,0,0,1,39.453,8.152Z" transform="translate(3.929 6.678)" fill="#dd3951"/>
        <path id="Vector-4" data-name="Vector" d="M0,1.984v9.743a8.141,8.141,0,0,0,8.167,8.132H20.516a2.006,2.006,0,0,0,2.032-2.1A10.806,10.806,0,0,1,25.921,8.9a10.024,10.024,0,0,1,3.945-2.377,11.086,11.086,0,0,1,6.963.02,1.972,1.972,0,0,0,2.624-1.846V1.964A1.974,1.974,0,0,0,37.48,0H1.973A2,2,0,0,0,0,1.984ZM11.836,13.278H7.891a1.473,1.473,0,1,1,0-2.946h3.945a1.473,1.473,0,1,1,0,2.946Z" transform="translate(3.929 20.773)" fill="#dd3951"/>
      </g>
    </g>
    <g id="vuesax_bold_bag-tick" data-name="vuesax/bold/bag-tick" transform="translate(339.81 1081.356)">
      <g id="bag-tick" transform="translate(0 0)">
        <path id="Vector-5" data-name="Vector" d="M33.983,7.062h-.788L26.532.4a1.392,1.392,0,0,0-1.951,0,1.392,1.392,0,0,0,0,1.951l4.711,4.711H10.132l4.711-4.711a1.392,1.392,0,0,0,0-1.951,1.392,1.392,0,0,0-1.951,0L6.249,7.062H5.46c-1.774,0-5.46,0-5.46,5.046,0,1.912.394,3.174,1.222,4A3.182,3.182,0,0,0,2.878,17a7.623,7.623,0,0,0,1.774.158h30.12A8.232,8.232,0,0,0,36.506,17c1.656-.394,2.917-1.577,2.917-4.889C39.424,7.062,35.737,7.062,33.983,7.062Z" transform="translate(3.942 3.937)" fill="#dd3951"/>
        <path id="Vector-6" data-name="Vector" d="M29.929,0H1.978A1.968,1.968,0,0,0,.027,2.287L1.682,12.418c.552,3.39,2.03,7.293,8.594,7.293H21.335c6.643,0,7.826-3.331,8.535-7.057L31.861,2.346A1.964,1.964,0,0,0,29.929,0Zm-8.3,7.983L15.224,13.9a1.477,1.477,0,0,1-2.05-.039L10.218,10.9a1.487,1.487,0,0,1,0-2.089,1.511,1.511,0,0,1,2.109,0l1.951,1.951L19.64,5.815a1.488,1.488,0,0,1,2.089.079A1.471,1.471,0,0,1,21.631,7.983Z" transform="translate(7.7 23.654)" fill="#dd3951"/>
        <path id="Vector-7" data-name="Vector" d="M0,0H47.308V47.308H0Z" transform="translate(47.308 47.308) rotate(180)" fill="none" opacity="0"/>
      </g>
    </g>
    <g id="Group_1479" data-name="Group 1479" transform="translate(266.001 1179.853)">
      <g id="Group_1254" data-name="Group 1254" transform="translate(0 0)">
        <ellipse id="Ellipse_679" data-name="Ellipse 679" cx="4.433" cy="4.433" rx="4.433" ry="4.433" transform="translate(0 5.642)" fill="#dd3951" opacity="0.42"/>
        <ellipse id="Ellipse_680" data-name="Ellipse 680" cx="2.821" cy="2.821" rx="2.821" ry="2.821" transform="translate(23.373 0)" fill="#dd3951"/>
        <ellipse id="Ellipse_681" data-name="Ellipse 681" cx="2.015" cy="2.015" rx="2.015" ry="2.015" transform="translate(12.896 31.433)" fill="#dd3951"/>
      </g>
      <g id="Group_1472" data-name="Group 1472" transform="translate(165.224 17.731)">
        <ellipse id="Ellipse_679-2" data-name="Ellipse 679" cx="4.433" cy="4.433" rx="4.433" ry="4.433" transform="translate(20.149 20.955)" fill="#dd3951" opacity="0.42"/>
        <ellipse id="Ellipse_680-2" data-name="Ellipse 680" cx="2.821" cy="2.821" rx="2.821" ry="2.821" transform="translate(0 29.821)" fill="#dd3951"/>
        <ellipse id="Ellipse_681-2" data-name="Ellipse 681" cx="2.015" cy="2.015" rx="2.015" ry="2.015" transform="translate(12.09)" fill="#dd3951"/>
      </g>
    </g>
    <g id="Group_1478" data-name="Group 1478" transform="translate(581.001 1179.853)">
      <g id="Group_1473" data-name="Group 1473" transform="translate(0 0)">
        <ellipse id="Ellipse_679-3" data-name="Ellipse 679" cx="4.433" cy="4.433" rx="4.433" ry="4.433" transform="translate(0 5.642)" fill="#dd3951" opacity="0.42"/>
        <ellipse id="Ellipse_680-3" data-name="Ellipse 680" cx="2.821" cy="2.821" rx="2.821" ry="2.821" transform="translate(23.373 0)" fill="#dd3951"/>
        <ellipse id="Ellipse_681-3" data-name="Ellipse 681" cx="2.015" cy="2.015" rx="2.015" ry="2.015" transform="translate(12.896 31.433)" fill="#dd3951"/>
      </g>
      <g id="Group_1474" data-name="Group 1474" transform="translate(165.224 17.731)">
        <ellipse id="Ellipse_679-4" data-name="Ellipse 679" cx="4.433" cy="4.433" rx="4.433" ry="4.433" transform="translate(20.149 20.955)" fill="#dd3951" opacity="0.42"/>
        <ellipse id="Ellipse_680-4" data-name="Ellipse 680" cx="2.821" cy="2.821" rx="2.821" ry="2.821" transform="translate(0 29.821)" fill="#dd3951"/>
        <ellipse id="Ellipse_681-4" data-name="Ellipse 681" cx="2.015" cy="2.015" rx="2.015" ry="2.015" transform="translate(12.09)" fill="#dd3951"/>
      </g>
    </g>
    <g id="Group_1477" data-name="Group 1477" transform="translate(897.001 1179.853)">
      <g id="Group_1475" data-name="Group 1475" transform="translate(0 0)">
        <ellipse id="Ellipse_679-5" data-name="Ellipse 679" cx="4.433" cy="4.433" rx="4.433" ry="4.433" transform="translate(0 5.642)" fill="#dd3951" opacity="0.42"/>
        <ellipse id="Ellipse_680-5" data-name="Ellipse 680" cx="2.821" cy="2.821" rx="2.821" ry="2.821" transform="translate(23.373 0)" fill="#dd3951"/>
        <ellipse id="Ellipse_681-5" data-name="Ellipse 681" cx="2.015" cy="2.015" rx="2.015" ry="2.015" transform="translate(12.896 31.433)" fill="#dd3951"/>
      </g>
      <g id="Group_1476" data-name="Group 1476" transform="translate(165.224 17.731)">
        <ellipse id="Ellipse_679-6" data-name="Ellipse 679" cx="4.433" cy="4.433" rx="4.433" ry="4.433" transform="translate(20.149 20.955)" fill="#dd3951" opacity="0.42"/>
        <ellipse id="Ellipse_680-6" data-name="Ellipse 680" cx="2.821" cy="2.821" rx="2.821" ry="2.821" transform="translate(0 29.821)" fill="#dd3951"/>
        <ellipse id="Ellipse_681-6" data-name="Ellipse 681" cx="2.015" cy="2.015" rx="2.015" ry="2.015" transform="translate(12.09)" fill="#dd3951"/>
      </g>
    </g>
    <g id="_5a292c1cc5c594.2486000115126477088101" data-name="5a292c1cc5c594.2486000115126477088101" transform="matrix(0.966, -0.259, 0.259, 0.966, 757.477, 1407.48)">
      <path id="Path_4783" data-name="Path 4783" d="M110.962.106a1.663,1.663,0,0,1,1.188,1.212,30.815,30.815,0,0,1-.39,5.668,43.87,43.87,0,0,1-9.426,21.264C96.2,35.864,87.677,42.074,77.249,46.531a83.188,83.188,0,0,1-40.2,6.245C25.167,51.553,14.791,47.55,7.026,41.189a44.624,44.624,0,0,1-5.989-5.971A3.48,3.48,0,0,1,0,32.852a3.4,3.4,0,0,1,2.26-3.146,2.307,2.307,0,0,1,2.6.909A46.649,46.649,0,0,0,9,35.124a44.839,44.839,0,0,0,14.448,9.135c13.4,5.3,30.165,4.911,46.11-1.049a72.324,72.324,0,0,0,22.6-13.492c1.229-1.089,3.822-3.682,4.847-4.847a47.648,47.648,0,0,0,11.663-23.1,5.166,5.166,0,0,1,.262-1A1.661,1.661,0,0,1,110.962.106Z" transform="translate(14.798 0)" fill="#dd3951"/>
      <path id="Path_4784" data-name="Path 4784" d="M3.438.02c1.754.1,4.416.408,6.641.775,2.965.489,5.2.955,11.185,2.336,6.28,1.456,8.424,1.9,11.3,2.388.851.14,1.631.268,1.736.291a1.314,1.314,0,0,1,.8.792,1.558,1.558,0,0,1-.367,1.567,6.973,6.973,0,0,1-3.053,1.072,18.859,18.859,0,0,1-3.676-.006c-1.614-.163-5.173-.786-10.154-1.771A102.355,102.355,0,0,0,6.846,5.659c-.385-.035-.827-.076-.979-.093l-.28-.029.035,1.532c.017.845.058,3.356.093,5.581.1,7.393.134,7.905.664,12.147a49.835,49.835,0,0,1,.536,5.8,15.917,15.917,0,0,1-.425,4.6A2.47,2.47,0,0,1,5.2,37.048a1.577,1.577,0,0,1-.856.157,1.587,1.587,0,0,1-.92-.186,3.028,3.028,0,0,1-1.328-1.392A14.853,14.853,0,0,1,.409,29.282c-.035-.355-.087-2.2-.116-4.107S.211,21.05.176,20.252C.007,16.093-.057,8.216.059,4.086.112,2.07.152,1.832.589,1.179A2.52,2.52,0,0,1,1.679.229,3.194,3.194,0,0,1,3.438.02Z" transform="translate(0 12.28)" fill="#dd3951"/>
    </g>
    <g id="_5a292c1cc5c594.2486000115126477088101-2" data-name="5a292c1cc5c594.2486000115126477088101" transform="matrix(0.966, -0.259, 0.259, 0.966, 436.999, 1407.48)">
      <path id="Path_4783-2" data-name="Path 4783" d="M110.962.106a1.663,1.663,0,0,1,1.188,1.212,30.815,30.815,0,0,1-.39,5.668,43.87,43.87,0,0,1-9.426,21.264C96.2,35.864,87.677,42.074,77.249,46.531a83.188,83.188,0,0,1-40.2,6.245C25.167,51.553,14.791,47.55,7.026,41.189a44.624,44.624,0,0,1-5.989-5.971A3.48,3.48,0,0,1,0,32.852a3.4,3.4,0,0,1,2.26-3.146,2.307,2.307,0,0,1,2.6.909A46.649,46.649,0,0,0,9,35.124a44.839,44.839,0,0,0,14.448,9.135c13.4,5.3,30.165,4.911,46.11-1.049a72.324,72.324,0,0,0,22.6-13.492c1.229-1.089,3.822-3.682,4.847-4.847a47.648,47.648,0,0,0,11.663-23.1,5.166,5.166,0,0,1,.262-1A1.661,1.661,0,0,1,110.962.106Z" transform="translate(14.798 0)" fill="#dd3951"/>
      <path id="Path_4784-2" data-name="Path 4784" d="M3.438.02c1.754.1,4.416.408,6.641.775,2.965.489,5.2.955,11.185,2.336,6.28,1.456,8.424,1.9,11.3,2.388.851.14,1.631.268,1.736.291a1.314,1.314,0,0,1,.8.792,1.558,1.558,0,0,1-.367,1.567,6.973,6.973,0,0,1-3.053,1.072,18.859,18.859,0,0,1-3.676-.006c-1.614-.163-5.173-.786-10.154-1.771A102.355,102.355,0,0,0,6.846,5.659c-.385-.035-.827-.076-.979-.093l-.28-.029.035,1.532c.017.845.058,3.356.093,5.581.1,7.393.134,7.905.664,12.147a49.835,49.835,0,0,1,.536,5.8,15.917,15.917,0,0,1-.425,4.6A2.47,2.47,0,0,1,5.2,37.048a1.577,1.577,0,0,1-.856.157,1.587,1.587,0,0,1-.92-.186,3.028,3.028,0,0,1-1.328-1.392A14.853,14.853,0,0,1,.409,29.282c-.035-.355-.087-2.2-.116-4.107S.211,21.05.176,20.252C.007,16.093-.057,8.216.059,4.086.112,2.07.152,1.832.589,1.179A2.52,2.52,0,0,1,1.679.229,3.194,3.194,0,0,1,3.438.02Z" transform="translate(0 12.28)" fill="#dd3951"/>
    </g>
    <g id="Ellipse_708" data-name="Ellipse 708" transform="translate(865.001 1360.239)" fill="none" stroke="#dd3951" stroke-width="2">
      <ellipse cx="15" cy="14.5" rx="15" ry="14.5" stroke="none"/>
      <ellipse cx="15" cy="14.5" rx="14" ry="13.5" fill="none"/>
    </g>
    <g id="Ellipse_711" data-name="Ellipse 711" transform="translate(544.001 1360.239)" fill="none" stroke="#dd3951" stroke-width="2">
      <circle cx="14.5" cy="14.5" r="14.5" stroke="none"/>
      <circle cx="14.5" cy="14.5" r="13.5" fill="none"/>
    </g>
    <g id="Ellipse_709" data-name="Ellipse 709" transform="translate(869.001 1364.239)" fill="none" stroke="#dd3951" stroke-width="1">
      <circle cx="10.5" cy="10.5" r="10.5" stroke="none"/>
      <circle cx="10.5" cy="10.5" r="10" fill="none"/>
    </g>
    <g id="Ellipse_710" data-name="Ellipse 710" transform="translate(549.001 1364.239)" fill="none" stroke="#dd3951" stroke-width="1">
      <circle cx="10.5" cy="10.5" r="10.5" stroke="none"/>
      <circle cx="10.5" cy="10.5" r="10" fill="none"/>
    </g>
    <g id="vuesax_bold_user-octagon" data-name="vuesax/bold/user-octagon" transform="translate(351.689 893.439)">
      <g id="user-octagon" transform="translate(620 188)">
        <path id="Vector-8" data-name="Vector" d="M0,0H47.31V47.31H0Z" fill="none" opacity="0"/>
        <path id="Vector-9" data-name="Vector" d="M32.934,7.623,21.142.832a6.294,6.294,0,0,0-6.253,0L3.117,7.623A6.233,6.233,0,0,0,0,13.028V26.571a6.281,6.281,0,0,0,3.117,5.405l11.792,6.791a6.294,6.294,0,0,0,6.253,0l11.792-6.791a6.233,6.233,0,0,0,3.117-5.405V13.028A6.318,6.318,0,0,0,32.934,7.623Zm-14.909,2.95A4.613,4.613,0,1,1,13.4,15.186,4.611,4.611,0,0,1,18.026,10.573Zm5.32,18.453H12.705a1.988,1.988,0,0,1-1.648-3.109,8.363,8.363,0,0,1,6.968-3.346,8.363,8.363,0,0,1,6.968,3.346A2,2,0,0,1,23.346,29.026Z" transform="translate(5.629 3.856)" fill="#dd3951"/>
      </g>
    </g>
  </g>
</svg>
