<svg xmlns="http://www.w3.org/2000/svg" width="73.915" height="77.185" viewBox="0 0 73.915 77.185">
  <g id="Home_appliance_-_Free_commerce_and_shopping_icons-2" data-name="Home appliance - Free commerce and shopping icons-2" transform="translate(-10)">
    <g id="Group_1505" data-name="Group 1505" transform="translate(10)">
      <g id="Group_1489" data-name="Group 1489" transform="translate(48.548 17.47)">
        <path id="Path_4895" data-name="Path 4895" d="M308.793,143.082c-2.813-2.555-2.384-10.205.351-12.241,2.213-1.647,5.374-.1,6.271-1.717.73-1.321-1.2-2.654-.923-5.711.054-.592.275-3.026,1.892-4.044,2.268-1.427,3.924-1.6,3.591-5.426-.233-2.671,6.362-8.178,9.889-6.927,2.685.953,2.744,8.127,1.9,10.16-.856,2.067-4.6,2.164-4.114,4.371,2.571,11.656-5.717,8.477-6.671,11.233-.653,1.886,1.9,3.134,1.587,5.355C322.007,142.092,312.706,146.637,308.793,143.082Z" transform="translate(-306.878 -106.834)" fill="#c6f7cb"/>
        <path id="Path_4896" data-name="Path 4896" d="M337.677,136.665c-1.462-.023-3.281,1.051-4.476,1.891a33.685,33.685,0,0,0,1.715-5.123.406.406,0,0,0-.79-.185,43.5,43.5,0,0,1-3.663,9.253c.082-2.09.058-5.323-.694-7.36a.406.406,0,0,0-.761.281c.988,2.675.619,7.816.534,8.839-.744,1.384-1.535,2.771-2.345,4.135.092-1.8-.059-4.462-1.51-5.9a.405.405,0,0,0-.571.576c1.831,1.815,1.208,6.26,1.1,6.953-2.03,3.312-4.115,6.415-5.855,8.9a9.247,9.247,0,0,0,.082-4.681.406.406,0,0,0-.767.263c.751,2.189-.565,5.933-.756,6.456-1.611,2.246-2.686,3.648-2.726,3.7a.406.406,0,0,0,.643.495c.36-.466,5.385-7.018,10.111-14.736a10.03,10.03,0,0,1,6.764-2.322.405.405,0,1,0,.054-.809,10.261,10.261,0,0,0-5.792,1.427,88.426,88.426,0,0,0,4.571-8.645c.5-.41,3.264-2.633,5.123-2.6a.406.406,0,0,0,.012-.811Z" transform="translate(-314.598 -128.667)" fill="#fff"/>
      </g>
      <g id="Group_1504" data-name="Group 1504">
        <g id="Group_1490" data-name="Group 1490" transform="translate(12.443)">
          <path id="Path_4897" data-name="Path 4897" d="M130.157,68.5h-40.8a3.27,3.27,0,0,1-3.271-3.271V3.271A3.27,3.27,0,0,1,89.361,0h40.8a3.27,3.27,0,0,1,3.271,3.271V65.227A3.27,3.27,0,0,1,130.157,68.5Z" transform="translate(-86.09 0)" fill="#4a5e64"/>
          <path id="Path_4898" data-name="Path 4898" d="M108.082,20.433h40.145V82.248H108.082Z" transform="translate(-104.486 -17.092)" fill="#fff"/>
          <path id="Path_4899" data-name="Path 4899" d="M200.305,7.23h-9.12a1.8,1.8,0,0,1-1.8-1.8V0H202.1V5.431A1.8,1.8,0,0,1,200.305,7.23Z" transform="translate(-172.495)" fill="#4a5e64"/>
        </g>
        <g id="Group_1502" data-name="Group 1502" transform="translate(0 8.688)">
          <g id="Group_1497" data-name="Group 1497">
            <g id="Group_1493" data-name="Group 1493" transform="translate(1.616 41.991)">
              <path id="Path_4900" data-name="Path 4900" d="M44.764,330.718H22.973a3.1,3.1,0,0,1-3-3.851l3.664-14.615a3.09,3.09,0,0,1,3-2.342H41.12a3.09,3.09,0,0,1,3,2.346l3.644,14.615A3.1,3.1,0,0,1,44.764,330.718Z" transform="translate(-19.882 -309.91)" fill="#a280ff"/>
              <g id="Group_1491" data-name="Group 1491" transform="translate(9.196 5.605)">
                <ellipse id="Ellipse_716" data-name="Ellipse 716" cx="4.788" cy="4.799" rx="4.788" ry="4.799" fill="#fff"/>
                <path id="Path_4901" data-name="Path 4901" d="M100.393,344.183h1.635v9.6h-1.635Z" transform="translate(-96.423 -344.183)" fill="#efefef"/>
              </g>
              <g id="Group_1492" data-name="Group 1492" transform="translate(3.279 20.808)">
                <path id="Path_4902" data-name="Path 4902" d="M39.935,437.154H46.2v5.7h-6.26Z" transform="translate(-39.935 -437.154)" fill="#d2ccff"/>
                <path id="Path_4903" data-name="Path 4903" d="M132.566,437.154h6.26v5.7h-6.26Z" transform="translate(-117.418 -437.154)" fill="#d2ccff"/>
              </g>
            </g>
            <g id="Group_1495" data-name="Group 1495" transform="translate(1.252 12.86)">
              <path id="Path_4904" data-name="Path 4904" d="M147.932,180.588h-8.708a.818.818,0,0,1-.818-.818V163.818a.818.818,0,0,1,.818-.818H149a3.96,3.96,0,0,1,3.883,4.339l-1.064,9.76A3.9,3.9,0,0,1,147.932,180.588Zm-7.89-1.635h7.89a2.271,2.271,0,0,0,2.258-2.031l1.064-9.76A2.309,2.309,0,0,0,149,164.635h-8.954Z" transform="translate(-118.66 -157.893)" fill="#a280ff"/>
              <path id="Path_4905" data-name="Path 4905" d="M37.545,160.9H26.465a4.637,4.637,0,0,1-4.6-4.093l-2.55-21.356-1.657-3.682H45.135l-2.989,25.039A4.637,4.637,0,0,1,37.545,160.9Z" transform="translate(-17.658 -131.768)" fill="#d2ccff"/>
              <g id="Group_1494" data-name="Group 1494" transform="translate(2.877 13.901)">
                <path id="Path_4906" data-name="Path 4906" d="M36.582,227.913a4.637,4.637,0,0,0,4.6,4.093H52.262a4.637,4.637,0,0,0,4.6-4.093l1.33-11.137H35.252Z" transform="translate(-35.252 -216.776)" fill="#8f64f9"/>
              </g>
            </g>
            <g id="Group_1496" data-name="Group 1496">
              <path id="Path_4907" data-name="Path 4907" d="M53.8,99.69H28.722v-.732a5.539,5.539,0,0,1,5.539-5.539h14A5.539,5.539,0,0,1,53.8,98.958Z" transform="translate(-25.66 -86.83)" fill="#8f64f9"/>
              <ellipse id="Ellipse_717" data-name="Ellipse 717" cx="3.304" cy="3.295" rx="3.304" ry="3.295" transform="translate(12.044)" fill="#d2ccff"/>
              <path id="Path_4908" data-name="Path 4908" d="M39.879,128.4H10.818a.818.818,0,1,1,0-1.635H39.879a.818.818,0,1,1,0,1.635Z" transform="translate(-10 -114.726)" fill="#a280ff"/>
            </g>
          </g>
          <g id="Group_1501" data-name="Group 1501" transform="translate(24.915 29.392)">
            <path id="Path_4909" data-name="Path 4909" d="M207.213,266.7h-43.22a1.635,1.635,0,0,1-1.635-1.635V234.5a1.635,1.635,0,0,1,1.635-1.635h43.22a1.635,1.635,0,0,1,1.635,1.635V265.07A1.635,1.635,0,0,1,207.213,266.7Z" transform="translate(-162.357 -232.863)" fill="#f4abb8"/>
            <path id="Path_4910" data-name="Path 4910" d="M193.043,263.513h24.333v23.818H193.043Z" transform="translate(-188.025 -258.501)" fill="#ffd4e0"/>
            <g id="Group_1498" data-name="Group 1498" transform="translate(34.369 0)">
              <path id="Path_4911" data-name="Path 4911" d="M382.977,232.863H372.528V266.7h10.449a1.672,1.672,0,0,0,1.673-1.671v-30.5A1.672,1.672,0,0,0,382.977,232.863Z" transform="translate(-372.528 -232.863)" fill="#e53399"/>
            </g>
            <g id="Group_1499" data-name="Group 1499" transform="translate(37.251 4.492)">
              <path id="Path_4912" data-name="Path 4912" d="M395.755,301.491h-4.782a.818.818,0,1,1,0-1.635h4.782a.818.818,0,1,1,0,1.635Z" transform="translate(-390.155 -293.393)" fill="#fff"/>
              <path id="Path_4913" data-name="Path 4913" d="M395.755,261.968h-4.782a.818.818,0,1,1,0-1.635h4.782a.818.818,0,1,1,0,1.635Z" transform="translate(-390.155 -260.333)" fill="#fff"/>
              <path id="Path_4914" data-name="Path 4914" d="M395.755,341.015h-4.782a.818.818,0,1,1,0-1.635h4.782a.818.818,0,1,1,0,1.635Z" transform="translate(-390.155 -326.454)" fill="#fff"/>
              <ellipse id="Ellipse_718" data-name="Ellipse 718" cx="2.399" cy="2.308" rx="2.399" ry="2.308" transform="translate(0.809 19.423)" fill="#fff"/>
            </g>
            <g id="Group_1500" data-name="Group 1500" transform="translate(6.727 33.842)">
              <path id="Path_4915" data-name="Path 4915" d="M373.292,439.812h5.27v5.264h-5.27Z" transform="translate(-345.525 -439.812)" fill="#ffd4e0"/>
              <path id="Path_4916" data-name="Path 4916" d="M203.494,439.812h5.27v5.264h-5.27Z" transform="translate(-203.494 -439.812)" fill="#ffd4e0"/>
            </g>
          </g>
        </g>
        <g id="Group_1503" data-name="Group 1503" transform="translate(41.234 21.443)">
          <path id="Path_4917" data-name="Path 4917" d="M282.737,133.872a.818.818,0,0,1-.818-.818v-1.11a.818.818,0,1,1,1.635,0v1.11A.818.818,0,0,1,282.737,133.872Z" transform="translate(-278.687 -131.127)" fill="#e0e0e0"/>
          <path id="Path_4918" data-name="Path 4918" d="M282.737,167.412a.818.818,0,0,1-.818-.818v-.943a.818.818,0,1,1,1.635,0v.943A.818.818,0,0,1,282.737,167.412Z" transform="translate(-278.687 -159.322)" fill="#e0e0e0"/>
          <path id="Path_4919" data-name="Path 4919" d="M297.673,152.5h-.944a.818.818,0,0,1,0-1.635h.944a.818.818,0,0,1,0,1.635Z" transform="translate(-290.391 -147.636)" fill="#e0e0e0"/>
          <path id="Path_4920" data-name="Path 4920" d="M263.918,152.5h-.944a.818.818,0,0,1,0-1.635h.944a.818.818,0,0,1,0,1.635Z" transform="translate(-262.156 -147.636)" fill="#e0e0e0"/>
        </g>
      </g>
    </g>
  </g>
</svg>
