<svg xmlns="http://www.w3.org/2000/svg" width="74.518" height="74.518" viewBox="0 0 74.518 74.518">
  <g id="Wardrobe_-_Free_furniture_and_household_icons-2" data-name="Wardrobe - Free furniture and household icons-2" transform="translate(-3 -2)">
    <path id="Path_4872" data-name="Path 4872" d="M5,5H73.2V7.526H5Z" transform="translate(0.526 0.789)" fill="#a65730"/>
    <path id="Path_4873" data-name="Path 4873" d="M61.789,10.578V3a3.789,3.789,0,0,0,0,7.578Z" transform="translate(14.466 0.263)" fill="#904c2a"/>
    <path id="Path_4874" data-name="Path 4874" d="M66.527,25.433l-3.789-7.578a1.268,1.268,0,0,0-.856-.668L51.5,14.88V12.1A5.052,5.052,0,1,0,51.5,2H47.715V4.526H51.5a2.526,2.526,0,1,1,0,5.052H50.241a1.263,1.263,0,0,0-1.263,1.263V14.88l-4.695,1.043.548,2.465,5.409-1.2,10.506,2.335,2.607,5.212H51.5V27.26H65.4a1.263,1.263,0,0,0,1.13-1.828Z" transform="translate(10.858 0)" fill="#cfcfcf"/>
    <path id="Path_4875" data-name="Path 4875" d="M43,19H60.682V49.312H43Z" transform="translate(10.52 4.471)" fill="#3a4c63"/>
    <path id="Path_4876" data-name="Path 4876" d="M54.716,23.955l-.173-3.2L43.363,17.13l-3.976,9.94-6.315-5.052v50.52H50.754V67.486h6.315Z" transform="translate(7.909 3.979)" fill="#59aae2"/>
    <path id="Path_4877" data-name="Path 4877" d="M39.173,23.955l.4,7.314L39,34.648l7.077-16.132L41.8,17.13l-2.642,6.607Z" transform="translate(9.468 3.979)" fill="#539fd4"/>
    <path id="Path_4878" data-name="Path 4878" d="M3,3v7.578A3.789,3.789,0,0,0,3,3Z" transform="translate(0 0.263)" fill="#904c2a"/>
    <path id="Path_4879" data-name="Path 4879" d="M36.75,18.918l-3.789-1.895a1.264,1.264,0,0,1-.7-1.13V10.841a1.263,1.263,0,0,1,1.263-1.263h1.263a2.526,2.526,0,1,0,0-5.052H31V2h3.789a5.052,5.052,0,1,1,0,10.1v3.008l3.091,1.546Z" transform="translate(7.364 0)" fill="#cfcfcf"/>
    <path id="Path_4880" data-name="Path 4880" d="M37.739,12l-3.55,8.134,6.076,1.97.162,2.982,2.642-6.607,1.076-2.69Z" transform="translate(8.203 2.63)" fill="#59aae2"/>
    <path id="Path_4881" data-name="Path 4881" d="M24.367,13,13,15.526l1.066,2.666,3.986,9.964L24.367,23.1l6.315,5.052,3.976-9.94,1.076-2.69Z" transform="translate(2.63 2.893)" fill="#fff"/>
    <path id="Path_4882" data-name="Path 4882" d="M43.644,23.955l-.173-3.2L32.291,17.13l-3.976,9.94L22,22.018v50.52H39.682V67.486H46Z" transform="translate(4.997 3.979)" fill="#fff"/>
    <path id="Path_4883" data-name="Path 4883" d="M20.682,27.075,16.7,17.111,5.526,20.76,3,67.491H9.315v5.052H27V22.023Z" transform="translate(0 3.974)" fill="#fff"/>
    <path id="Path_4884" data-name="Path 4884" d="M27.1,16H19.526L17,18.526l6.315,3.789,6.315-3.789Z" transform="translate(3.682 3.682)" fill="#f0f0f0"/>
    <path id="Path_4885" data-name="Path 4885" d="M39.6,18.521l-4.273-1.386-3.976,9.94-6.315-5.052-6.315,5.052-3.986-9.964-4.269,1.394,5.449,13.622,9.121-7.3V72.543h3.789V27.86l5.332,4.266Z" transform="translate(1.963 3.974)" fill="#f0f0f0"/>
    <path id="Path_4886" data-name="Path 4886" d="M48.052,66.112H44.263A1.262,1.262,0,0,1,43,64.8l1.263-32.838,2.523.1L45.575,63.586h2.477Z" transform="translate(10.52 7.88)" fill="#539fd4"/>
    <path id="Path_4887" data-name="Path 4887" d="M11.789,66.111H8V63.585h2.477L9.264,32.059l2.523-.1L13.051,64.8a1.26,1.26,0,0,1-1.262,1.311Z" transform="translate(1.315 7.88)" fill="#f0f0f0"/>
    <path id="Path_4888" data-name="Path 4888" d="M24.742,15.286V12.1a5.052,5.052,0,1,0,0-10.1H20.953V4.526h3.789a2.526,2.526,0,1,1,0,5.052H23.479a1.263,1.263,0,0,0-1.263,1.263v4.445l-5.841,4.673,1.579,1.973,5.526-4.421,5.526,4.421,1.579-1.973Z" transform="translate(3.518 0)" fill="#cfcfcf"/>
    <g id="Group_1488" data-name="Group 1488" transform="translate(5.526 38.627)">
      <path id="Path_4889" data-name="Path 4889" d="M37.052,66.112H33.263A1.262,1.262,0,0,1,32,64.8l1.263-32.838,2.523.1L34.575,63.586h2.477Z" transform="translate(2.101 -30.747)" fill="#f0f0f0"/>
      <path id="Path_4890" data-name="Path 4890" d="M38.263,56.526a1.263,1.263,0,1,1,1.263-1.263A1.263,1.263,0,0,1,38.263,56.526Z" transform="translate(3.416 -24.951)" fill="#f0f0f0"/>
      <path id="Path_4891" data-name="Path 4891" d="M6.263,56.526a1.263,1.263,0,1,1,1.263-1.263A1.263,1.263,0,0,1,6.263,56.526Z" transform="translate(-5 -24.951)" fill="#f0f0f0"/>
      <path id="Path_4892" data-name="Path 4892" d="M20.263,33.526a1.263,1.263,0,1,1,1.263-1.263A1.263,1.263,0,0,1,20.263,33.526Z" transform="translate(-1.318 -31)" fill="#f0f0f0"/>
      <path id="Path_4893" data-name="Path 4893" d="M20.263,43.526a1.263,1.263,0,1,1,1.263-1.263A1.263,1.263,0,0,1,20.263,43.526Z" transform="translate(-1.318 -28.37)" fill="#f0f0f0"/>
      <path id="Path_4894" data-name="Path 4894" d="M20.263,53.526a1.263,1.263,0,1,1,1.263-1.263A1.263,1.263,0,0,1,20.263,53.526Z" transform="translate(-1.318 -25.74)" fill="#f0f0f0"/>
    </g>
  </g>
</svg>
