<svg xmlns="http://www.w3.org/2000/svg" width="86.392" height="83.826" viewBox="0 0 86.392 83.826">
  <g id="Grocery_cart_-_Free_food_icons-2" data-name="Grocery cart - Free food icons-2" transform="translate(0 -7.603)">
    <path id="Path_4785" data-name="Path 4785" d="M290.03,113.132H276.317L281.8,98.048h8.228Z" transform="translate(-229.693 -75.184)" fill="#d6bdef"/>
    <path id="Path_4786" data-name="Path 4786" d="M450.8,49.063a1.395,1.395,0,0,1-1.312-1.864l4.233-11.8a1.394,1.394,0,1,1,2.624.94l-4.233,11.8A1.394,1.394,0,0,1,450.8,49.063Z" transform="translate(-373.58 -22.334)" fill="#95d6a4"/>
    <path id="Path_4787" data-name="Path 4787" d="M441.7,67.485a1.393,1.393,0,0,1-1.391-1.343l-.271-7.5a1.393,1.393,0,0,1,1.342-1.443,1.374,1.374,0,0,1,1.442,1.342l.271,7.5a1.393,1.393,0,0,1-1.342,1.443Z" transform="translate(-365.787 -41.227)" fill="#95d6a4"/>
    <path id="Path_4788" data-name="Path 4788" d="M458.58,82.338a1.394,1.394,0,0,1-1.044-2.317l4.975-5.618a1.394,1.394,0,0,1,2.087,1.848l-4.975,5.618A1.391,1.391,0,0,1,458.58,82.338Z" transform="translate(-380.044 -55.139)" fill="#b3e59f"/>
    <path id="Path_4789" data-name="Path 4789" d="M409.149,106.589a5.573,5.573,0,0,0-7.128,3.365l-3.275,9.01h11.886l1.882-5.246A5.574,5.574,0,0,0,409.149,106.589Z" transform="translate(-331.464 -82.011)" fill="#ffa95f"/>
    <path id="Path_4790" data-name="Path 4790" d="M375.538,50.1l-1.154-1.154a2.786,2.786,0,0,1-.816-1.97V42.552a1.393,1.393,0,0,0-1.393-1.393h-1.393l-.648.815V64.847h6.221V52.067A2.785,2.785,0,0,0,375.538,50.1Z" transform="translate(-307.679 -27.894)" fill="#dbeaff"/>
    <path id="Path_4791" data-name="Path 4791" d="M346.513,74.191h-2.787v.239a2.786,2.786,0,0,1-.816,1.97l-1.154,1.154a2.786,2.786,0,0,0-.816,1.971v4.419l5.574,8.36V74.191Z" transform="translate(-283.411 -55.353)" fill="#c3ddff"/>
    <path id="Path_4792" data-name="Path 4792" d="M360.243,46.733h-2.787v-4.18a1.393,1.393,0,0,1,1.393-1.393h1.393a1.393,1.393,0,0,1,1.393,1.393Z" transform="translate(-297.141 -27.894)" fill="#b6b1b7"/>
    <path id="Path_4793" data-name="Path 4793" d="M340.94,132h2.787a2.787,2.787,0,0,1,2.787,2.787v5.574H340.94Z" transform="translate(-283.412 -103.406)" fill="#b6b1b7"/>
    <path id="Path_4794" data-name="Path 4794" d="M375.365,41.159h-1.393v5.574h2.787v-4.18A1.393,1.393,0,0,0,375.365,41.159Z" transform="translate(-310.87 -27.894)" fill="#c8c5c9"/>
    <path id="Path_4795" data-name="Path 4795" d="M458.4,136.7a1.394,1.394,0,0,0-.942,2.623l2.623.941h0l.47-1.312a5.521,5.521,0,0,0,.305-1.372Z" transform="translate(-379.501 -107.243)" fill="#ff8b5a"/>
    <path id="Path_4796" data-name="Path 4796" d="M412.525,130.775l2.623.941a1.394,1.394,0,0,0,.941-2.623l-2.623-.941h0l-.952,2.617s.007,0,.01.006Z" transform="translate(-342.91 -100.208)" fill="#ff8b5a"/>
    <path id="Path_4797" data-name="Path 4797" d="M276.317,98.048H281.8v15.084h-5.485Z" transform="translate(-229.693 -75.184)" fill="#c3aff0"/>
    <path id="Path_4798" data-name="Path 4798" d="M164.923,37.046a44.461,44.461,0,0,1-.738,6.707c-.848,2.314-3.922,6.317-2.866,11.017l2.458,9.356L174.924,69.7l-6.876-32.453Z" transform="translate(-133.918 -24.475)" fill="#ffe07d"/>
    <path id="Path_4799" data-name="Path 4799" d="M165.013,37.648l-1.375-.727-1.128,1.231.121,1.525a5.53,5.53,0,0,1-.319,2.346c-.848,2.313-2.6,7.943-1.539,12.643l8.031,9.356Z" transform="translate(-133.37 -24.371)" fill="#ffd064"/>
    <path id="Path_4800" data-name="Path 4800" d="M175.579,9.479a2.339,2.339,0,0,0-3.181-1.7,2.381,2.381,0,0,0-1.427,2.423l.284,3.582,4.991-1.009Z" transform="translate(-142.116 0)" fill="#c38c66"/>
    <path id="Path_4801" data-name="Path 4801" d="M129.99,73.546l-3.945-1.083,4.949,19.711h7.822Z" transform="translate(-104.777 -53.916)" fill="#ffe07d"/>
    <path id="Path_4802" data-name="Path 4802" d="M123.03,83.046l-.882,1.476.484,1.452a5.53,5.53,0,0,1,.254,2.354c-.267,2.449-.611,8.334,1.544,12.643h7.22l-7.179-17.548Z" transform="translate(-101.538 -62.714)" fill="#ffd064"/>
    <path id="Path_4803" data-name="Path 4803" d="M119.071,54.29a2.34,2.34,0,0,0-3.5-.89,2.381,2.381,0,0,0-.8,2.7l1.136,3.409,4.6-2.179Z" transform="translate(-95.296 -37.696)" fill="#c38c66"/>
    <path id="Path_4804" data-name="Path 4804" d="M217.312,123.216h-5.927a1.393,1.393,0,0,0-1.393,1.393v8.36h13.934v-2.787Z" transform="translate(-174.559 -96.106)" fill="#b3e59f"/>
    <path id="Path_4805" data-name="Path 4805" d="M237.654,132.882h-8.36a2.787,2.787,0,0,1-2.787-2.787v-2.787l1.834-.846h7.649l1.664.846Z" transform="translate(-188.288 -98.805)" fill="#ccf49f"/>
    <path id="Path_4806" data-name="Path 4806" d="M219.642,65.409H229.4A1.393,1.393,0,0,1,230.79,66.8v9.754H219.642L218.249,66.8A1.393,1.393,0,0,1,219.642,65.409Z" transform="translate(-181.423 -48.052)" fill="#dad8db"/>
    <path id="Path_4807" data-name="Path 4807" d="M211.384,65.409a1.393,1.393,0,0,0-1.393,1.393v9.754h2.787V65.409Z" transform="translate(-174.559 -48.052)" fill="#c8c5c9"/>
    <path id="Path_4808" data-name="Path 4808" d="M238.945,92.97h-2.787a1.393,1.393,0,1,1,0-2.787h2.787a1.393,1.393,0,1,1,0,2.787Z" transform="translate(-195.152 -68.646)" fill="#ccf49f"/>
    <path id="Path_4809" data-name="Path 4809" d="M45.341,119.424l-3.372-8.818a6.9,6.9,0,0,0-6.4-4.407H32.508v2.743h3.057a4.138,4.138,0,0,1,3.842,2.645l3.371,8.818a1.372,1.372,0,0,0,1.282.881,1.4,1.4,0,0,0,.49-.09A1.374,1.374,0,0,0,45.341,119.424Z" transform="translate(-27.023 -81.96)" fill="#dad8db"/>
    <path id="Path_4810" data-name="Path 4810" d="M182.24,371.944H125.322l7.249-17.6a6.227,6.227,0,0,1-2.541-1.034l-8.024,19.487a1.371,1.371,0,0,0,1.268,1.894H182.24a1.371,1.371,0,0,0,0-2.743Z" transform="translate(-101.334 -287.372)" fill="#dad8db"/>
    <circle id="Ellipse_712" data-name="Ellipse 712" cx="5.485" cy="5.485" r="5.485" transform="translate(16.456 80.458)" fill="#5d5360"/>
    <circle id="Ellipse_713" data-name="Ellipse 713" cx="2.743" cy="2.743" r="2.743" transform="translate(19.198 83.201)" fill="#c8c5c9"/>
    <path id="Path_4811" data-name="Path 4811" d="M165.653,179.343H97.363L97,181.061l9.112,25.782c1.825,4.772,5.532,6.2,10.593,5.49l44.411-6.2s5.051-1.944,5.054-2.017c.046-1.127.855-2.12.855-3.316V180.714A1.371,1.371,0,0,0,165.653,179.343Z" transform="translate(-80.633 -142.762)" fill="#ff8086"/>
    <circle id="Ellipse_714" data-name="Ellipse 714" cx="5.485" cy="5.485" r="5.485" transform="translate(75.421 80.458)" fill="#5d5360"/>
    <circle id="Ellipse_715" data-name="Ellipse 715" cx="2.743" cy="2.743" r="2.743" transform="translate(78.164 83.201)" fill="#c8c5c9"/>
    <path id="Path_4812" data-name="Path 4812" d="M5.485,108.918H1.371a1.371,1.371,0,1,1,0-2.743H5.485a1.371,1.371,0,1,1,0,2.743Z" transform="translate(0 -81.94)" fill="#5d5360"/>
    <path id="Path_4813" data-name="Path 4813" d="M156.544,204.118,106.7,211.074a8.221,8.221,0,0,1-8.822-5.21l-10.14-26.521h-.944a1.371,1.371,0,0,0-1.281,1.861l9.8,25.639a10.97,10.97,0,0,0,11.763,6.947l44.411-6.2A6.876,6.876,0,0,0,156.544,204.118Z" transform="translate(-71.008 -142.762)" fill="#e5646e"/>
    <path id="Path_4814" data-name="Path 4814" d="M163.4,229.957a1.368,1.368,0,0,1-1.685-.959l-6.461-23.542a1.371,1.371,0,0,1,2.644-.726l6.461,23.542A1.37,1.37,0,0,1,163.4,229.957Z" transform="translate(-129.019 -163.027)" fill="#ffe07d"/>
    <path id="Path_4815" data-name="Path 4815" d="M230.151,228.893a1.306,1.306,0,0,1-.226.019,1.371,1.371,0,0,1-1.351-1.146l-3.73-22.452a1.371,1.371,0,1,1,2.705-.45l3.73,22.452A1.371,1.371,0,0,1,230.151,228.893Z" transform="translate(-186.89 -163.022)" fill="#b3e59f"/>
    <path id="Path_4816" data-name="Path 4816" d="M297.128,227.629l-.08,0a1.37,1.37,0,0,1-1.367-1.292l-1.223-21.163a1.371,1.371,0,0,1,2.737-.158l1.223,21.163A1.369,1.369,0,0,1,297.128,227.629Z" transform="translate(-244.771 -163.032)" fill="#d6bdef"/>
    <path id="Path_4817" data-name="Path 4817" d="M356.267,224.941a1.371,1.371,0,1,1-2.743,0V205.094a1.371,1.371,0,1,1,2.743,0Z" transform="translate(-293.873 -163.028)" fill="#a4ccff"/>
    <path id="Path_4818" data-name="Path 4818" d="M408.076,223.793a1.371,1.371,0,1,1-2.743,0v-18.7a1.371,1.371,0,1,1,2.743,0Z" transform="translate(-336.94 -163.028)" fill="#ffd064"/>
    <path id="Path_4819" data-name="Path 4819" d="M457.854,222.26a1.371,1.371,0,1,1-2.743,0V205.07a1.371,1.371,0,1,1,2.743,0Z" transform="translate(-378.319 -163.008)" fill="#ffa95f"/>
  </g>
</svg>
