<svg xmlns="http://www.w3.org/2000/svg" width="81.554" height="71.974" viewBox="0 0 81.554 71.974">
  <g id="Pharmacy_-_Free_architecture_and_city_icons-2" data-name="Pharmacy - Free architecture and city icons-2" transform="translate(0)">
    <path id="Path_4820" data-name="Path 4820" d="M81.309,234.582H63.169a.674.674,0,0,0-.674.674V269.19H81.983V235.256a.674.674,0,0,0-.674-.674Zm0,0" transform="translate(-52.541 -197.216)" fill="#78c2a4"/>
    <path id="Path_4821" data-name="Path 4821" d="M75.612,234.582v28.536A2.886,2.886,0,0,1,72.726,266H62.5v3.186H81.983V235.256a.674.674,0,0,0-.674-.674Zm0,0" transform="translate(-52.542 -197.216)" fill="#4fab86"/>
    <path id="Path_4822" data-name="Path 4822" d="M87.5,285.647V260.162a.579.579,0,0,1,.579-.579H98.44a.579.579,0,0,1,.579.579v25.486a.579.579,0,0,1-.579.579H88.075A.579.579,0,0,1,87.5,285.647Zm0,0" transform="translate(-73.559 -218.235)" fill="#b2ebf2"/>
    <path id="Path_4823" data-name="Path 4823" d="M94.24,259.582v19.283a4.176,4.176,0,0,1-4.176,4.176H87.5v2.606a.579.579,0,0,0,.579.579H98.44a.579.579,0,0,0,.579-.579V260.161a.579.579,0,0,0-.579-.579h-4.2Zm0,0" transform="translate(-73.56 -218.234)" fill="#80deea"/>
    <path id="Path_4824" data-name="Path 4824" d="M7.5,416.488h8.76v5.633H7.5Zm0,0" transform="translate(-6.306 -350.147)" fill="#78909c"/>
    <path id="Path_4825" data-name="Path 4825" d="M7.5,431.855h8.76v3.186H7.5Zm0,0" transform="translate(-6.306 -363.067)" fill="#546e7a"/>
    <path id="Path_4826" data-name="Path 4826" d="M184.836,416.488h50.918v5.633H184.836Zm0,0" transform="translate(-155.395 -350.147)" fill="#78909c"/>
    <path id="Path_4827" data-name="Path 4827" d="M229.383,416.488v.762a1.686,1.686,0,0,1-1.686,1.686h-42.86v3.186h50.918v-5.633Zm0,0" transform="translate(-155.395 -350.147)" fill="#546e7a"/>
    <path id="Path_4828" data-name="Path 4828" d="M22.512,192.793v35.631h6.369v-28.3a.674.674,0,0,1,.673-.674h18.14a.674.674,0,0,1,.674.674v28.3H96.894V192.793Zm0,0" transform="translate(-18.926 -162.084)" fill="#dce6eb"/>
    <path id="Path_4829" data-name="Path 4829" d="M96.894,192.793v35.631H48.367v-3.186H78.7a11.824,11.824,0,0,0,11.824-11.824V192.793ZM22.511,225.238v3.186H28.88v-3.186Zm0,0" transform="translate(-18.926 -162.083)" fill="#b9c3cd"/>
    <path id="Path_4830" data-name="Path 4830" d="M276.187,253.966H250.719a1.231,1.231,0,0,1-1.231-1.231V235.813a1.231,1.231,0,0,1,1.231-1.231h25.468a1.231,1.231,0,0,1,1.231,1.231v16.922A1.231,1.231,0,0,1,276.187,253.966Zm0,0" transform="translate(-209.748 -197.216)" fill="#b2ebf2"/>
    <path id="Path_4831" data-name="Path 4831" d="M276.187,234.582h-5.14v11.5a4.7,4.7,0,0,1-4.7,4.7H249.488v1.954a1.231,1.231,0,0,0,1.231,1.231h25.468a1.231,1.231,0,0,0,1.231-1.231V235.813a1.231,1.231,0,0,0-1.231-1.231Zm0,0" transform="translate(-209.748 -197.216)" fill="#80deea"/>
    <path id="Path_4832" data-name="Path 4832" d="M163.709,311.8v10.007h-3.873V311.8Zm0,0" transform="translate(-134.376 -262.139)" fill="#78909c"/>
    <path id="Path_4833" data-name="Path 4833" d="M324.605,319.89h-5.871v-3.959a2.935,2.935,0,1,1,5.87,0v3.959Zm0,0" transform="translate(-267.965 -263.14)" fill="#80deea"/>
    <path id="Path_4834" data-name="Path 4834" d="M316.344,261.132a2.394,2.394,0,0,1-2.394,2.394H309a2.394,2.394,0,1,1,0-4.787h4.947A2.394,2.394,0,0,1,316.344,261.132Zm0,0" transform="translate(-257.771 -217.525)" fill="#ffc14f"/>
    <path id="Path_4835" data-name="Path 4835" d="M314.688,258.738h-.136a2.389,2.389,0,0,1-2.254,3.2h-4.81a2.393,2.393,0,0,0,2.253,1.593h4.947a2.394,2.394,0,0,0,0-4.788Zm0,0" transform="translate(-258.51 -217.525)" fill="#ffa90b"/>
    <path id="Path_4836" data-name="Path 4836" d="M309,258.738a2.394,2.394,0,1,0,0,4.787h2.473v-4.787Zm0,0" transform="translate(-257.771 -217.525)" fill="#e04955"/>
    <path id="Path_4837" data-name="Path 4837" d="M312.214,278.8h-4.726a2.393,2.393,0,0,0,2.031,1.581c.171.016.006.012,2.7.012V278.8Zm0,0" transform="translate(-258.51 -234.389)" fill="#c62430"/>
    <path id="Path_4838" data-name="Path 4838" d="M80.36,67.465H1.195A1.2,1.2,0,0,0,0,68.659V86.233a1.2,1.2,0,0,0,1.195,1.195H80.36a1.194,1.194,0,0,0,1.195-1.195V68.659A1.2,1.2,0,0,0,80.36,67.465Zm0,0" transform="translate(0 -56.719)" fill="#78c2a4"/>
    <path id="Path_4839" data-name="Path 4839" d="M80.359,67.465H75.183v5.284A11.493,11.493,0,0,1,63.689,84.242H0v1.991a1.2,1.2,0,0,0,1.195,1.195H80.359a1.2,1.2,0,0,0,1.195-1.195V68.659a1.2,1.2,0,0,0-1.195-1.195Zm0,0" transform="translate(0 -56.719)" fill="#4fab86"/>
    <path id="Path_4840" data-name="Path 4840" d="M75.839,87.428H73.449V67.465h2.389ZM67.922,67.465H65.533V87.428h2.389ZM49.7,87.428h2.389V67.465H49.7ZM60.005,67.465H57.616V87.428h2.389Zm23.75,0H81.366V87.428h2.389Zm23.75,0h-2.389V87.428h2.389Zm7.916,0h-2.389V87.428h2.389Zm-23.75,0H89.282V87.428h2.389Zm7.916,0H97.2V87.428h2.389Zm0,0" transform="translate(-41.784 -56.719)" fill="#4fab86"/>
    <path id="Path_4841" data-name="Path 4841" d="M75.839,142.5v3.186H73.449V142.5Zm-10.306,0v3.186h2.389V142.5Zm-7.917,0v3.186h2.389V142.5Zm-7.916,0v3.186h2.389V142.5Zm31.666,0v3.186h2.389V142.5Zm24.107,0h-.357v3.186H107.5v-3.368A11.572,11.572,0,0,1,105.473,142.5Zm-16.191,0v3.186h2.389V142.5Zm23.75-2.839v6.025h2.389v-8.926a11.547,11.547,0,0,1-2.389,2.9ZM97.2,142.5v3.186h2.389V142.5Zm0,0" transform="translate(-41.783 -114.974)" fill="#00897b"/>
    <path id="Path_4842" data-name="Path 4842" d="M204.917,11.941A11.941,11.941,0,1,1,192.976,0,11.941,11.941,0,0,1,204.917,11.941Zm0,0" transform="translate(-152.199)" fill="#e04955"/>
    <path id="Path_4843" data-name="Path 4843" d="M214.218.961A11.938,11.938,0,0,1,205.941,21.5a12.026,12.026,0,0,1-1.906-.153A11.939,11.939,0,1,0,214.218.961Zm0,0" transform="translate(-171.536 -0.808)" fill="#c62430"/>
    <path id="Path_4844" data-name="Path 4844" d="M226.787,37.656h-2.833a.788.788,0,0,1-.788-.788V34.034a.788.788,0,0,0-.788-.788h-2.9a.789.789,0,0,0-.788.788v2.834a.788.788,0,0,1-.788.788h-2.834a.788.788,0,0,0-.788.788v2.9a.788.788,0,0,0,.788.788h2.834a.788.788,0,0,1,.788.788v2.834a.788.788,0,0,0,.788.788h2.9a.788.788,0,0,0,.788-.788V42.915a.788.788,0,0,1,.788-.788h2.833a.788.788,0,0,0,.788-.788v-2.9A.788.788,0,0,0,226.787,37.656Zm0,0" transform="translate(-180.153 -27.95)" fill="#dce6eb"/>
    <g id="Group_1484" data-name="Group 1484" transform="translate(41.181 9.705)">
      <path id="Path_4845" data-name="Path 4845" d="M285.164,64.613v-2.9a.788.788,0,0,0-.788-.788h-.329a11.857,11.857,0,0,1-1.262,4.471h1.59a.788.788,0,0,0,.788-.788Zm0,0" transform="translate(-278.923 -60.93)" fill="#b9c3cd"/>
      <path id="Path_4846" data-name="Path 4846" d="M259.583,108.454a.788.788,0,0,0,.788-.788v-.771a12.008,12.008,0,0,1-1.831,1.559Zm0,0" transform="translate(-258.539 -99.573)" fill="#b9c3cd"/>
    </g>
  </g>
</svg>
