<svg id="receipt-text" xmlns="http://www.w3.org/2000/svg" width="49.42" height="49.42" viewBox="0 0 49.42 49.42">
  <path id="Vector" d="M0,0H49.42V49.42H0Z" fill="none" opacity="0"/>
  <path id="Vector-2" data-name="Vector" d="M10.3,0H8.237C2.059,0,0,3.686,0,8.237V39.124a2.053,2.053,0,0,0,3.295,1.647l3.521-2.636a2.075,2.075,0,0,1,2.718.206l3.418,3.439a2.076,2.076,0,0,0,2.924,0l3.459-3.459a2.041,2.041,0,0,1,2.677-.185l3.521,2.636a2.064,2.064,0,0,0,3.295-1.647V4.118A4.13,4.13,0,0,1,32.947,0Zm8.751,24.2H9.781a1.544,1.544,0,0,1,0-3.089h9.266a1.544,1.544,0,0,1,0,3.089Zm1.544-8.237H8.237a1.544,1.544,0,0,1,0-3.089H20.592a1.544,1.544,0,0,1,0,3.089Z" transform="translate(4.118 4.118)" fill="#dd3951"/>
  <path id="Vector-3" data-name="Vector" d="M4.139,0V3.089a5.183,5.183,0,0,1,3.6,1.483A5.212,5.212,0,0,1,9.266,8.237V13.22c0,1.524-.68,2.224-2.224,2.224H3.089V4.139a1.055,1.055,0,0,1,1.05-1.05Zm0,0A4.139,4.139,0,0,0,0,4.139V18.532H7.042a4.952,4.952,0,0,0,5.313-5.313V8.237A8.226,8.226,0,0,0,4.139,0Z" transform="translate(32.947 4.118)" fill="#dd3951"/>
</svg>
