<svg xmlns="http://www.w3.org/2000/svg" width="95.715" height="60.252" viewBox="0 0 95.715 60.252">
  <path id="refahstore-svgrepo-com" d="M1.6,64.567A2.883,2.883,0,0,1,.117,63.008,10.082,10.082,0,0,1,0,61.261V59.933H1.194v1.308c0,1.3,0,1.308.315,1.623.3.3.367.319,1.2.319s.905-.02,1.2-.319c.63-.63.279-1.089-.845-1.089H2.387V60.715a2.918,2.918,0,0,1,.239-1.543A1.644,1.644,0,0,1,4.4,58.2h.8V59.61H4.564c-.674,0-.806.08-.917.55-.064.267-.04.279.6.4.861.16,1.077.379,1.145,1.145a2.766,2.766,0,0,1-1.284,2.728,6.29,6.29,0,0,1-2.5.136Zm8.63-.239q-.055-.355-.08-.714l-.028-.379.905-.052c.845-.052.917-.08,1.165-.379.247-.315.259-.391.259-2.086V58.96h1.192v.845a2.229,2.229,0,0,0,.128.973,4.8,4.8,0,0,0,2.233,0,2.187,2.187,0,0,0,.128-.981v-.849l.622.032.626.032.008.841a2.615,2.615,0,0,0,.12.957,3.051,3.051,0,0,0,1.184.08,3.151,3.151,0,0,0,1.663-.339,6.523,6.523,0,0,0,.865-.518c.267-.207.267-.215.064-.371-.156-.12-.5-.16-1.276-.16-1.172,0-1.117.04-1.212-.79l-.06-.514h1.316c1.627,0,2.154.2,2.481.909.251.554.275,1.424.04,1.515-.088.036-.16.112-.16.175,0,.08.395.1,1.165.084l1.165-.032.056-.917.052-.921.638-.032.63-.032-.04,1.168c-.032.973-.08,1.236-.279,1.555-.387.626-.638.7-2.205.67s-1.874-.112-2.126-.554l-.179-.315-.427.271a5.123,5.123,0,0,1-.849.415,8.223,8.223,0,0,1-2.979.068.583.583,0,0,0-.534-.016,8.175,8.175,0,0,1-1.575.136c-1.264.024-1.28.024-1.28.279a2.412,2.412,0,0,1-.79,1.436,2.707,2.707,0,0,1-2.07.622c-.463-.024-.5-.052-.554-.359Zm6.365.2a.73.73,0,0,1,.108-1.4c.351-.088.439-.068.678.156A.741.741,0,0,1,16.6,64.531Zm2.52-.072a.816.816,0,0,1,1.188-1.117.73.73,0,0,1,.144.957c-.171.327-.3.395-.762.4a.6.6,0,0,1-.57-.239Zm5.7.1a2.325,2.325,0,0,1-.187-.758l-.08-.622h.826c.758,0,.849-.024,1.176-.319l.355-.315.036-1.795.036-1.795h1.176v1.767a7.45,7.45,0,0,1-.179,2.285,2.41,2.41,0,0,1-3.155,1.551Zm6.78.028a2.118,2.118,0,0,1-1.448-1.244,4.02,4.02,0,0,1-.347-2l-.06-1.408h1.332v1.236a6.7,6.7,0,0,0,.12,1.507c.171.375.538.5,1.428.5.81,0,1.033-.092,1.252-.5.319-.606.028-.9-.9-.9-.79,0-.818-.032-.81-.957a3.339,3.339,0,0,1,.439-1.9c.383-.558.726-.714,1.6-.714h.77V59.61h-.63c-.694,0-.889.12-.889.55,0,.267.052.3.646.415.9.175,1.089.439,1.089,1.464,0,2.01-1.328,2.951-3.593,2.552Zm30.748.04a4.2,4.2,0,0,1-.128-.77l-.072-.678h.837c.762,0,.865-.028,1.141-.291.423-.4.383-.538-.183-.6-.993-.116-1.46-.766-1.46-2.034,0-1.3.447-1.942,1.42-2.034a1.315,1.315,0,0,1,1.436.67,8.05,8.05,0,0,1,.247,3.928,2.658,2.658,0,0,1-1.248,1.627,4.577,4.577,0,0,1-1.99.183Zm2.082-4.259c0-.411-.044-.558-.2-.646-.287-.152-.451.06-.451.594,0,.514.052.59.4.59C64.413,60.91,64.433,60.862,64.433,60.372Zm1.775,4.247a1.718,1.718,0,0,1-.2-.758l-.08-.678h.83c.877,0,1.165-.088,1.316-.4a13.21,13.21,0,0,0,.148-1.982l.056-1.787H69.47l.056.917.052.921,1.408.016c1.356.016,1.384.012.806-.116q-.4-.083-.79-.2c-.4-.16-.65-1.4-.407-2.05a1.978,1.978,0,0,1,1.169-1,1.675,1.675,0,0,1,1.866,1.452,3.546,3.546,0,0,1-.4,2.935c-.371.415-1.284.578-2.7.487l-1-.068-.068.3a2.432,2.432,0,0,1-1.771,1.966,2.939,2.939,0,0,1-1.484.036Zm6.461-5.228A.98.98,0,0,0,72.389,59c-.471-.475-1.216-.16-.8.339.148.183,1.077.219,1.077.044Zm12.4,5.2a3.877,3.877,0,0,1-.128-.754l-.068-.658h.766c.814,0,1.252-.132,1.4-.419a14.318,14.318,0,0,0,.14-1.962l.056-1.787h1.192l.052.917.056.921.913.032c.654.024.933-.008,1-.108a3.577,3.577,0,0,0,.092-.977v-.837h1.2v.905c0,.957.108,1.2.506,1.129.164-.032.2-.183.247-1.009l.056-.973.566-.032.57-.032v.758c0,.973.124,1.312.483,1.312.3,0,.3,0,.279-1.141-.012-.853.06-.941.71-.9l.53.032.032,1.057a3.1,3.1,0,0,1-.179,1.535,1.25,1.25,0,0,1-1.93.622c-.231-.164-.367-.2-.415-.12a1.184,1.184,0,0,1-.427.267,1.236,1.236,0,0,1-1.3-.267c-.183-.2-.191-.2-.578.024a2.428,2.428,0,0,1-1.4.235c-1.085,0-1.025-.032-1.165.666a2.6,2.6,0,0,1-1.184,1.38,4.443,4.443,0,0,1-2.066.179Zm-70.286-.219a.757.757,0,1,1,1.077-.024A.74.74,0,0,1,14.781,64.376Zm26.1-1.775a3.485,3.485,0,0,1-.718-.319.526.526,0,0,0-.594-.068,5.46,5.46,0,0,1-1.284.128c-1.276.008-1.715-.168-2.006-.806-.187-.415-.211-.718-.211-2.983V56.041h1.188V58.23c0,1.2.032,2.3.068,2.433.056.215.136.247.606.247s.53-.024.463-.187a1.854,1.854,0,0,1,.439-2.09,1.071,1.071,0,0,1,.889-.387.91.91,0,0,0,.849-.411A1.4,1.4,0,0,1,41,57.445a2.748,2.748,0,0,1,.582.614c1.643,2.082,1.874,2.871,1.169,4.02-.387.634-.985.8-1.874.518Zm.822-1.26c.287-.156.271-.686-.032-1.176l-.243-.391-.068.435a3.892,3.892,0,0,1-.183.726c-.1.247-.092.311.064.4.235.136.215.136.463,0Zm-1.635-.913c.319-.391-.1-1.117-.51-.861a.477.477,0,0,0-.012.794c.287.267.351.279.518.068Zm17.7,1.982a1.1,1.1,0,0,1-.475-.255c-.175-.211-.375-.2-.73.028a6.287,6.287,0,0,1-3.159-.04c-.279-.164-.319-.164-.6.016-.255.167-.542.2-2.046.2a5.123,5.123,0,0,1-2.17-.2c-.706-.335-.762-.594-.806-3.549l-.04-2.568h1.32V60.91h1.575c1.858,0,1.819.16.375-1.619-.917-1.129-.985-1.252-1.069-1.854l-.088-.65.459-.2a23.661,23.661,0,0,1,2.8-1.085,3.405,3.405,0,0,1,.12.7l.076.658-.921.427-.925.427,1.172,1.5a16.588,16.588,0,0,0,1.344,1.6,4.547,4.547,0,0,0,1.172.064l1-.032.052-.917.056-.925H57.45l.032.861c.032.9.136,1.145.467,1.145.175,0,.2-.116.231-1l.032-1H59.4l.028.758c.04,1.077.092,1.244.4,1.244.335,0,.387-.167.387-1.2V58.96h1.192v1.065c0,1.2-.12,1.663-.518,2.1a1.063,1.063,0,0,1-1.432.175c-.375-.211-.479-.227-.662-.112a1.2,1.2,0,0,1-1.029.219ZM6.422,62.358c-.1-.044-.136-.758-.136-3.027V56.364h1.2l-.032,3-.028,3.007-.431.02a1.922,1.922,0,0,1-.57-.04Zm2.951-.06A2.166,2.166,0,0,1,8.6,59.307a2.624,2.624,0,0,1,.375-.5c.052-.032.076-.183.044-.339-.04-.215.032-.371.307-.654a1.962,1.962,0,0,1,.427-.371A16.451,16.451,0,0,1,11.3,59.319a1.471,1.471,0,0,1,.4,1.2,1.752,1.752,0,0,1-.857,1.655,1.625,1.625,0,0,1-1.476.12Zm1.081-1.6c.072-.227-.239-.869-.419-.869-.219,0-.5.375-.5.662C9.533,61.09,10.275,61.257,10.454,60.695Zm34.154,1.488a2.238,2.238,0,0,1-.451-3.031,1.329,1.329,0,0,0,.287-.7c-.052-.207.562-1.045.722-.985a17.248,17.248,0,0,1,1.85,2.337,2.325,2.325,0,0,1-.152,1.7,1.571,1.571,0,0,1-2.253.678Zm1.268-1.539c.068-.279-.231-.806-.463-.814-.183,0-.467.435-.467.718a.507.507,0,0,0,.666.463.646.646,0,0,0,.263-.367ZM76.2,62.318c-.8-.239-1.077-.818-1.089-2.221l-.008-1.081.618-.032.618-.032.032.953.032.953h4.219l.056-.921.052-.921h1.192l.052.917.056.925,1.543.032c1.089.02,1.543,0,1.543-.092a11.323,11.323,0,0,0-1.073-1.428c-1-1.2-1.077-1.344-1.145-1.894a1.5,1.5,0,0,1,.016-.678,18.927,18.927,0,0,1,3.127-1.26.338.338,0,0,1,.16.307,4.725,4.725,0,0,0,.064.63l.064.379-.885.375a6.142,6.142,0,0,0-.929.447,5.724,5.724,0,0,0,.718,1.077c.977,1.276,1.184,1.667,1.184,2.245a1.207,1.207,0,0,1-.67,1.224,16.051,16.051,0,0,1-4.2,0,.409.409,0,0,0-.471.02,25.29,25.29,0,0,1-4.881.08Zm-18.5-3.709a.792.792,0,0,1-.1-1.376.755.755,0,0,1,.933,1.149.645.645,0,0,1-.834.231Zm1.675.016a.777.777,0,0,1-.215-1.272.649.649,0,0,1,.949-.036.771.771,0,0,1-.734,1.308Zm32.6,0a.763.763,0,0,1-.116-1.328.68.68,0,0,1,1.045.267A.767.767,0,0,1,91.979,58.625Zm1.751.008c-.853-.319-.57-1.643.311-1.468.471.1.61.259.61.71a.709.709,0,0,1-.921.758Zm-69.652-.1a1.033,1.033,0,0,1-.359-1.085.811.811,0,0,1,1.348-.263.98.98,0,0,1-.02,1.113.877.877,0,0,1-.969.235Zm52.974-.16a.717.717,0,0,1,.02-1.133,1.029,1.029,0,0,1,.471-.227.893.893,0,0,1,.758.774.958.958,0,0,1-.758.853.877.877,0,0,1-.491-.267Zm1.651.048a.644.644,0,0,1-.291-.574c0-.407.076-.538.4-.71a.749.749,0,0,1,1.061.837.7.7,0,0,1-1.169.447Zm-51.741-.726c-.822-.3-.666-1.655.191-1.655a.763.763,0,0,1,.738,1.133C27.691,57.656,27.36,57.839,26.961,57.692Zm31.3-.79a.693.693,0,0,1,.048-1.033.643.643,0,0,1,1.013-.016.733.733,0,0,1-.518,1.264.869.869,0,0,1-.542-.215Zm34.3.028a.989.989,0,0,1-.2-.758.862.862,0,0,1,.762-.566.758.758,0,0,1-.048,1.515.751.751,0,0,1-.51-.191ZM71.52,56.747a.933.933,0,0,1-.267-.546c0-.279.427-.814.65-.814a1.054,1.054,0,0,1,.8.586.823.823,0,0,1-.742,1.037A.88.88,0,0,1,71.52,56.747ZM49.8,56.2q-.012-.138-.028-.275a11.9,11.9,0,0,1,3-1.3c.263.263-.028.5-1.288,1.037-1.763.746-1.671.718-1.691.534ZM1.517,49.744a2.413,2.413,0,0,1-1.2-1.113c-.179-.391-.2-.734-.2-2.828A23.2,23.2,0,0,1,.217,43.02a2.166,2.166,0,0,1,1.089-1.28c.395-.2.666-.211,5.34-.211h4.921l.9-.311q9.78-3.489,19.566-6.954c1.957-.695,2.568-.874,2.707-.783.3.187.239,1.364-.092,2.022-.6,1.176-1.308,1.7-6.281,4.61-3.837,2.245-5.539,3.246-6.552,3.852-.415.251-2.365,1.4-4.331,2.54S13.617,48.779,13.262,49c-1.523.945-.945.869-6.521.861-2.987,0-5.065-.052-5.224-.116Zm76.021-2c0-2.4.08-2.764.742-3.318.363-.307.447-.335,2.305-.766A13.115,13.115,0,0,0,84.433,42a16.893,16.893,0,0,0,2.9-2.748,14.112,14.112,0,0,0,.957-1.515A11.227,11.227,0,0,0,89.769,32a16.493,16.493,0,0,1,.12-2.058A5.611,5.611,0,0,1,92.932,25.9a6.984,6.984,0,0,1,2.453-.61h.235v3.944c0,4.108-.06,4.921-.487,6.668a18.847,18.847,0,0,1-3.908,7.689A17.388,17.388,0,0,1,78.7,49.831l-1.165.068V47.746Zm-31.625-7.3a8.487,8.487,0,0,1-4.929-2.616,7.938,7.938,0,0,1-2.4-6.421,6.032,6.032,0,0,1,.4-2.365A8.355,8.355,0,0,1,41.1,25.664a9.311,9.311,0,0,1,3.083-2.038c1.316-.479,1.675-.506,6.848-.506h4.953V27.8c0,4.921-.048,5.555-.495,6.836a8.77,8.77,0,0,1-9.571,5.8ZM48.644,34.3a3.127,3.127,0,0,0,1.38-1.743,12.965,12.965,0,0,0,.112-1.994v-1.6H48.313c-1.755,0-1.846.012-2.357.279a2.43,2.43,0,0,0-1.3,1.3,2.493,2.493,0,0,0-.279,1.248,2.815,2.815,0,0,0,1.34,2.469,2.891,2.891,0,0,0,2.923.04Zm18.277,6.142a8.885,8.885,0,0,1-7.167-6.389l-.243-.814-.04-10.178c-.028-7.537-.008-10.413.088-11.087a5.48,5.48,0,0,1,5.061-4.63l.678-.072V19.717c0,11.514.016,12.483.191,12.985a2.911,2.911,0,0,0,1.372,1.647l.546.3,5.224.032c3.41.02,5.376-.008,5.651-.08a2.939,2.939,0,0,0,2.146-2.652l.056-.678-2.1-.06a9.8,9.8,0,0,1-4.507-.834,8.869,8.869,0,0,1-4.865-6.142,9.924,9.924,0,0,1,.251-4.475,8.63,8.63,0,0,1,8.16-5.974A8.241,8.241,0,0,1,82.3,15.155a8.8,8.8,0,0,1,3.709,5.133c.235.81.239.945.239,6.947v6.118l-.311.917a8.879,8.879,0,0,1-6.134,5.982c-.778.219-1.061.231-6.552.255-3.155.016-6.006-.016-6.333-.064ZM80.4,23.494c0-1.679-.016-1.874-.231-2.273a2.832,2.832,0,0,0-2.648-1.587,2.717,2.717,0,0,0-2.8,2.832A2.8,2.8,0,0,0,77,25.293a16.562,16.562,0,0,0,1.89.06l1.515-.016ZM1.533,38.358A2.457,2.457,0,0,1,.277,37.129a25.717,25.717,0,0,1-.04-5.571,2.433,2.433,0,0,1,1.384-1.336c.407-.132,1.7-.167,7.21-.207q4.575-.021,9.149-.16c8.387-.395,13.141-.586,14.636-.6l1.484-.016.331.319a1.729,1.729,0,0,1-.479,2.816c-.215.1-1.619.518-3.119.921l-4.351,1.184q-6.39,1.755-12.789,3.481l-1.963.539-4.917-.012A52.491,52.491,0,0,1,1.533,38.358ZM28.652,27.825c-1.791-.08-5.129-.215-7.422-.311q-3.19-.132-6.381-.279-3.736-.117-7.474-.108c-3.4,0-5.408-.04-5.675-.12a2.54,2.54,0,0,1-1.46-1.38,28.95,28.95,0,0,1,0-5.452A2.357,2.357,0,0,1,1.657,18.8a44.49,44.49,0,0,1,5.44-.1l4.985.032,3.354.937c3.545.993,4.881,1.36,5.416,1.5q4.764,1.31,9.532,2.6c1.783.483,3.438.985,3.677,1.117a1.7,1.7,0,0,1,.279,2.816c-.411.343-.455.347-5.691.12Zm3.733-4.766q-1.351-.493-2.708-.973-2.629-.928-5.252-1.874l-3.358-1.2c-3.517-1.24-8.339-2.967-8.774-3.135-.359-.14-1.212-.171-5.356-.2q-2.633,0-5.264-.088a2.361,2.361,0,0,1-1.4-1.28c-.152-.4-.171-.853-.144-3.023L.169,8.738l.323-.463A2.736,2.736,0,0,1,1.3,7.562l.479-.251H6.741a43.454,43.454,0,0,1,5.208.12c.128.072,1.894,1.1,3.916,2.293l4.929,2.9c6.253,3.669,9.5,5.583,10.808,6.365,2.365,1.42,3.242,2.421,3.354,3.837.056.686-.072.953-.451.937a21.024,21.024,0,0,1-2.126-.7Zm44.26-12.981a2.916,2.916,0,0,1-.415-5.344,2.019,2.019,0,0,1,1.312-.287,2.267,2.267,0,0,1,1.4.319,2.765,2.765,0,0,1,1.5,2.828,2.883,2.883,0,0,1-3.789,2.485Z" transform="translate(0.001 -4.447)" fill="#a1a1a1"/>
</svg>
