<svg xmlns="http://www.w3.org/2000/svg" width="129.963" height="43.289" viewBox="0 0 129.963 43.289">
  <path id="shahrvand-svgrepo-com" d="M51.677,51.2A15.368,15.368,0,0,1,41.242,44.58a17.64,17.64,0,0,1-1.982-4.592l-.119-.639,1.787.07a10.2,10.2,0,0,0,5.242-1.078l.585-.363.6.444A10.229,10.229,0,0,0,63.265,32.98c.347-1.137.379-1.727.428-8.772a70.7,70.7,0,0,1,.265-8.231,10.072,10.072,0,0,1,5.182-5.957,6.272,6.272,0,0,1,3.428-.736,8.1,8.1,0,0,1,2.984.238c4.283,1.381,6.834,5.025,6.839,9.769a8.535,8.535,0,0,0,2.827,6.352A8.844,8.844,0,0,0,88.2,27.755a9.868,9.868,0,0,0,5.014,1.208,11.739,11.739,0,0,0,6.206-1.917c.466-.309.5-.3,1.9.422a10.239,10.239,0,0,0,5.247,1.31,10.6,10.6,0,0,0,5.35-1.3l1.435-.742,1.116.552a21.534,21.534,0,0,0,2.02.866,17.489,17.489,0,0,0,6.108.271,11.843,11.843,0,0,0,5.87-3.141c1.2-1.164,1.354-1.04,1.462,1.137.19,4.018-1.094,7.982-3.336,10.267a9.117,9.117,0,0,1-11.8,1.072,6.417,6.417,0,0,0-1.04-.661,3.162,3.162,0,0,0-.726.46,10.611,10.611,0,0,1-12.309.146l-.579-.433-.866.661a10.507,10.507,0,0,1-15.141-2.881,5.614,5.614,0,0,0-.552-.85,7.148,7.148,0,0,0-.617.991,9.316,9.316,0,0,1-8.117,4.581l-.856-.054L73.933,34.6l-.049-5.117,1.186-1.2c1.89-1.917,2.426-3.433,2.437-6.856,0-2.729-.742-5.318-1.836-6.336a4.029,4.029,0,0,0-2.653-.958,3.655,3.655,0,0,0-3.52,2.307c-.4.85-.4.986-.439,11.166-.038,9.693-.065,10.408-.417,11.962a9.048,9.048,0,0,1-1.023,2.713L66.6,43.973a15.668,15.668,0,0,1-9.054,6.866,18.466,18.466,0,0,1-5.87.363ZM9.764,39.192A12.648,12.648,0,0,1,3.4,35.639,10.083,10.083,0,0,1,.553,31.307c-.52-1.332-.634-1.814-.5-2.166.146-.417.227-.444,1.056-.363.493.054,2.691.092,4.874.087a31.582,31.582,0,0,0,6.4-.417c4.04-.682,6.417-1.782,8.058-3.709,2.085-2.458,2.513-4.484,2.507-11.929,0-4.148-.19-3.9,2.875-3.9,1.711,0,2.161.054,2.35.282s.244,1.5.26,5.643c.022,5.875.054,6.119,1.218,8.518a12.048,12.048,0,0,0,4.819,4.754,11.755,11.755,0,0,0,5,1.218,12.757,12.757,0,0,0,4.787-1.094c1.159-.6,1.191-.493,1.235,4.132.032,3.6,0,3.964-.292,4.224-.774.677-1.6.845-4.9,1a10.354,10.354,0,0,1-4.067-.482,21.379,21.379,0,0,1-3.406-1.17A23.3,23.3,0,0,1,28,32.417a.834.834,0,0,0-.655-.379c-.347,0-.514.195-.893,1.04-1.4,3.141-4.874,5.545-9.092,6.282a21.292,21.292,0,0,1-7.6-.168Zm40.89-.542a11.6,11.6,0,0,1-3.119-1.6c-.4-.368-.406-.439-.406-4.76,0-3.747.043-4.424.282-4.668.374-.374.433-.363,1.462.162a8.411,8.411,0,0,0,2.177.634c2.653.368,6.336-.563,5.967-1.516-.092-.238-.255-.211-1.153.195a10.8,10.8,0,0,1-5.94.336,9.358,9.358,0,0,1-6.314-5.3q-.283-.752-.617-1.484a4.706,4.706,0,0,1-.379-2.041,4.137,4.137,0,0,0-.363-1.922,3.487,3.487,0,0,0-5.134-1.343,3.537,3.537,0,0,0,3.628,6.06,3.563,3.563,0,0,1,1.289-.4c.471,0,.574.108.937,1a15.909,15.909,0,0,0,1.208,2.253c.986,1.543.921,1.749-.8,2.545a9.747,9.747,0,0,1-4.847,1,9.021,9.021,0,0,1-6.347-2.886,8.478,8.478,0,0,1-2.778-6.7,8.308,8.308,0,0,1,.953-4.424A9.7,9.7,0,0,1,39.1,8.526c5.242.005,9.059,3.639,10.088,9.585.417,2.4.634,2.913,1.462,3.4a2.854,2.854,0,0,0,2.031.347,3.246,3.246,0,0,0,3.227-1.993,3.24,3.24,0,0,0-.715-4.034,3.318,3.318,0,0,0-3.347-.986,11.036,11.036,0,0,1-1.765.195c-.693,0-.823-.07-1.235-.671a2.924,2.924,0,0,1-.455-.888,4.722,4.722,0,0,0-.634-1.153,2.851,2.851,0,0,1-.634-1.635c0-.634.07-.742.769-1.137a8.267,8.267,0,0,1,4.473-1.1,8.654,8.654,0,0,1,4.749,1.208,11.924,11.924,0,0,1,3.964,4.115c1,2.058,1.056,2.632,1.1,10.343.043,6.888.032,7.148-.357,8.372a9.1,9.1,0,0,1-5.984,6.065,11.648,11.648,0,0,1-5.193.1Zm67.185-11.48a9.8,9.8,0,0,1-4.04-2.144,9.8,9.8,0,0,1-3.569-6.915,3.973,3.973,0,0,0-.661-2.063,3.563,3.563,0,0,0-4.489-1.17c-.829.417-1.706.357-1.706-.108a15.077,15.077,0,0,0-1.814-3.444,1.343,1.343,0,0,1-.357-.579c0-.325,1.007-1.072,2.3-1.711,1.175-.579,1.294-.6,3.39-.6a7.182,7.182,0,0,1,3.227.422,12.779,12.779,0,0,1,4.186,2.908,10.3,10.3,0,0,1,2.274,5.881,3.436,3.436,0,0,0,4.787,3.379,3.809,3.809,0,0,0,2.2-3.628,3.781,3.781,0,0,0-4.045-3.184,4.1,4.1,0,0,0-1.262.558c-.514.352-.7.4-.91.227a18.378,18.378,0,0,1-1.863-2.789,5.231,5.231,0,0,0-.558-.883c-.52-.726-.542-.818-.319-1.3a2.978,2.978,0,0,1,1.424-1.083,8.709,8.709,0,0,1,4.933-.921,6.223,6.223,0,0,1,3.5.937,9.5,9.5,0,0,1,5.2,6.06,12.341,12.341,0,0,1-.065,5.659,11.621,11.621,0,0,1-2.134,3.682,9.873,9.873,0,0,1-9.623,2.81ZM91,26.953a9.842,9.842,0,0,1-6.688-6.541,9.742,9.742,0,0,1,.65-6.552A9.39,9.39,0,0,1,96.222,9.23a9.519,9.519,0,0,1,6.249,6.9l.558,2.247a4.63,4.63,0,0,0,1.744,2.648c.612.379.888.428,2.751.428h2.069l.644,1.186a19.583,19.583,0,0,0,1.051,1.744c.812,1.116.514,1.6-1.375,2.247a9.585,9.585,0,0,1-9.682-2.253A9.785,9.785,0,0,1,97.4,19.194c-.677-3.011-1.679-4.44-3.433-4.9a3.156,3.156,0,0,0-3.19.986c-2.843,2.838.19,7.7,3.845,6.173a4.819,4.819,0,0,1,1.543-.271c.866,0,.9.027,1.175.677a10.261,10.261,0,0,0,1.9,2.762c.336,0,.13.531-.363.942-.558.471-.9.617-2.783,1.208a12.022,12.022,0,0,1-5.09.173Z" transform="translate(0 -8.002)" fill="#a1a1a1"/>
</svg>
