<svg id="shopping-cart" xmlns="http://www.w3.org/2000/svg" width="57.093" height="57.093" viewBox="0 0 57.093 57.093">
  <path id="Vector" d="M0,0H57.093V57.093H0Z" fill="none" opacity="0"/>
  <path id="Vector-2" data-name="Vector" d="M8.326,4.163A4.163,4.163,0,1,1,4.163,0,4.163,4.163,0,0,1,8.326,4.163Z" transform="translate(34.494 45.198)" fill="#fff"/>
  <path id="Vector-3" data-name="Vector" d="M8.326,4.163A4.163,4.163,0,1,1,4.163,0,4.163,4.163,0,0,1,8.326,4.163Z" transform="translate(15.463 45.198)" fill="#fff"/>
  <path id="Vector-4" data-name="Vector" d="M8.54,6.4l-.476,5.828a1.887,1.887,0,0,0,1.9,2.046h36.42a1.9,1.9,0,0,0,1.9-1.76,7.035,7.035,0,0,0-7.113-7.636H11.942A6.486,6.486,0,0,0,10.491,2,6.326,6.326,0,0,0,5.923,0H1.784A1.8,1.8,0,0,0,0,1.784,1.8,1.8,0,0,0,1.784,3.568H5.923A2.611,2.611,0,0,1,8.54,6.4Z" transform="translate(2.974 2.974)" fill="#fff"/>
  <path id="Vector-5" data-name="Vector" d="M39.275,0H2.783A1.913,1.913,0,0,0,.88,1.737L.024,12.085a6.952,6.952,0,0,0,6.922,7.541H33.4a7.131,7.131,0,0,0,6.97-6.494l.785-11.109A1.861,1.861,0,0,0,39.275,0Z" transform="translate(9.515 20.815)" fill="#fff"/>
</svg>
