<svg xmlns="http://www.w3.org/2000/svg" width="162.994" height="36.842" viewBox="0 0 162.994 36.842">
  <path id="snowa-svgrepo-com" d="M16.2,46.026A18.826,18.826,0,0,1,4.252,39.479,12.436,12.436,0,0,1,1.97,36.057,17.7,17.7,0,0,1,0,27.751,17.578,17.578,0,0,1,5.366,14.738,17.759,17.759,0,0,1,16.789,9.36a18.568,18.568,0,0,1,16.924,7.959A17.8,17.8,0,0,1,36.376,23.3a12.132,12.132,0,0,1,.475,4.326,12.952,12.952,0,0,1-.38,4.17A18.475,18.475,0,0,1,22.718,45.632a21.494,21.494,0,0,1-6.52.4Zm4.822-.774a18.553,18.553,0,0,0,10.914-5.895A13.583,13.583,0,0,0,34.4,35.663a18.745,18.745,0,0,0,1.895-7.389q.244-3.127-.618-.122A16.321,16.321,0,0,1,22.732,40.417a12.14,12.14,0,0,1-9.1-1.474c-.292-.2-.407-.34-.265-.285a11.952,11.952,0,0,0,3.5.367,5.412,5.412,0,0,0,4.89-2.852,3.61,3.61,0,0,0,.435-2.194,3.706,3.706,0,0,0-.36-2.071c-.774-1.508-1.834-2.241-4.272-2.934-1.644-.475-3.518-1.582-3.355-2,.061-.156.034-.2-.081-.136-.5.312-2.139-2.513-2.445-4.217-.177-.951.027-3.178.306-3.348a.582.582,0,0,0,.007-.727,9.023,9.023,0,0,0-2.825,1.5,12.852,12.852,0,0,0-2.975,2.907c-.387.516-.747.9-.795.842s-.1.02-.1.156a4.55,4.55,0,0,1-.441,1.121,14.024,14.024,0,0,0,.115,13c.306.577.591,1.087.638,1.134a10.4,10.4,0,0,0,1.576,1.874,15.021,15.021,0,0,0,10.235,4.374,21.147,21.147,0,0,0,3.6-.2Zm4.7-8.6,1.7-1.114a13.944,13.944,0,0,0,4.618-17.929A10.846,10.846,0,0,0,29.6,14.283a10.716,10.716,0,0,0-2.4-2,2.649,2.649,0,0,1-.543-.34A20.133,20.133,0,0,0,23.1,10.473a22.771,22.771,0,0,0-7.117-.374,18.234,18.234,0,0,0-13.3,9.114A19,19,0,0,0,.585,28.5c.034.659.251.367.462-.611a17.039,17.039,0,0,1,6.126-9.827c3.436-2.581,8.516-3.912,12.089-3.158,1.677.353,3.158.9,3.158,1.161,0,.075.061.1.129.054s.244.007.387.109c.211.156-.2.19-2.214.19-2.7-.007-2.526-.048-4.238,1.087a5.416,5.416,0,0,0-1.9,4.394,5.592,5.592,0,0,0,1.426,3.015A7.23,7.23,0,0,0,18.9,26.338c1.127.244,2,.618,2,.856q0,.214.285.122a4.33,4.33,0,0,1,2.139,1.677.347.347,0,0,0,.217.306,4.723,4.723,0,0,1,1.141,2.031c0,.163.068.306.136.306a6.535,6.535,0,0,1,.475,2.526,6.52,6.52,0,0,1-.306,1.562,3.056,3.056,0,0,0-.217,1.073c.136.217.5.163.944-.136Zm28.035,2.268a8.413,8.413,0,0,1-3.708-1.7,1.746,1.746,0,0,1-.475-1.27c-.163-1.861,1.29-2.581,3.409-1.684,2.336.978,5.773,1.426,7.083.93a2.385,2.385,0,0,0,1.8-2.757,3.138,3.138,0,0,0-1.406-1.786,21.353,21.353,0,0,0-3.579-.985,22.77,22.77,0,0,1-4.088-1.256,5.824,5.824,0,0,1-3.28-3.4,8.058,8.058,0,0,1,.177-4.672,7.547,7.547,0,0,1,3.178-3.287,12.79,12.79,0,0,1,9.508-.258,3.814,3.814,0,0,1,2.309,1.922,1.813,1.813,0,0,1-1.4,2.357,8.375,8.375,0,0,1-2.5-.462c-3.518-.944-5.773-.747-6.723.577a2.424,2.424,0,0,0-.156,2.445,4.4,4.4,0,0,0,2.513,1.426l2.3.57c4.068,1.019,5.915,2.126,6.914,4.143a6.7,6.7,0,0,1-1.6,7.674c-1.644,1.331-3.647,1.9-6.6,1.9a11.349,11.349,0,0,1-3.667-.435Zm17.237-.02c-1.222-.774-1.175-.353-1.127-10.187.041-8.156.061-8.693.333-9.2a6.366,6.366,0,0,1,4.211-3.076,11.221,11.221,0,0,1,3.756-.34c2.947,0,3.858.17,5.589,1.012A4.863,4.863,0,0,1,86.625,20.7c.115.53.17,3.409.17,8.6,0,8.279-.014,8.415-.72,9.2a3.138,3.138,0,0,1-1.942.863,2.954,2.954,0,0,1-2.187-1.175l-.374-.543L81.5,29.428,81.423,21.2l-.455-.475a3.341,3.341,0,0,0-2.085-1.066,3.615,3.615,0,0,0-3.47,1.1l-.353.5-.075,8.19-.075,8.19-.38.557a3.009,3.009,0,0,1-1.019.863A2.343,2.343,0,0,1,70.991,38.9Zm25.576.224c-2.438-.557-3.851-1.5-4.747-3.172l-.407-.761-.034-7.212c-.041-7.083-.041-7.226.285-8.089.6-1.616,1.976-2.73,4.224-3.43a10.948,10.948,0,0,1,3.939-.353c2.662,0,2.866.02,4.034.414,2.234.761,3.355,1.63,4.048,3.124.319.686.326.863.326,8.048,0,7.212,0,7.362-.326,8.055-.747,1.6-2.282,2.7-4.666,3.3a20.727,20.727,0,0,1-6.669.075Zm4.38-3.477a3,3,0,0,0,1.834-1.29c.054-.163.149-.272.224-.224s.115-2.764.1-6.248c-.027-7.083-.007-6.948-1.127-7.674-2.024-1.311-5.331-.387-5.338,1.494-.048,9.1-.007,12.32.156,12.68a3.48,3.48,0,0,0,2.873,1.481A5.189,5.189,0,0,0,100.948,35.649Zm18.16,3.43a8.63,8.63,0,0,1-5.678-4.211l-.5-1.032-.048-7.987c-.048-8.87-.088-8.5.964-9.3a2.581,2.581,0,0,1,2.839-.156c1.311.767,1.229.211,1.318,9.141.068,7.735.081,7.912.394,8.326a3.98,3.98,0,0,0,2.635,1.236c1.732.122,3.273-.795,3.43-2.037.041-.319.081-3.925.1-8.014.034-8.353-.034-7.871,1.216-8.659a1.948,1.948,0,0,1,1.521-.319,2.4,2.4,0,0,1,2.146,1.222c.278.462.3.924.374,8.394l.068,7.905.38.407a4.081,4.081,0,0,0,4.469.767,3.959,3.959,0,0,0,1.012-.638c.53-.611.577-1.379.577-8.815,0-8.122-.014-7.993,1-8.761a1.99,1.99,0,0,1,1.6-.435,2.193,2.193,0,0,1,2.228,1.141l.346.516-.048,8.034-.048,8.027-.475,1.019c-1.521,3.2-5.786,5.107-9.623,4.292a11.763,11.763,0,0,1-3.307-1.155l-.842-.448-.829.448a10.671,10.671,0,0,1-7.226,1.093Zm33.054.122a7.891,7.891,0,0,1-5.087-2.465c-.849-1.127-1.046-1.976-1.046-4.53,0-2.506.217-3.5,1.066-4.822a8.031,8.031,0,0,1,2.567-2.3q.726-.28,1.44-.591a20.252,20.252,0,0,1,3.559-.272l3.1-.082.048-1.019a2.946,2.946,0,0,0-1.311-2.961c-.652-.38-.815-.407-2.289-.4a6.615,6.615,0,0,0-2.5.353,9.693,9.693,0,0,1-3.4.822c-1.155-.272-1.7-1.1-1.385-2.071.34-1.032,1.392-1.691,3.728-2.336a12,12,0,0,1,4.231-.407c2.567.007,2.791.034,3.844.414a5.964,5.964,0,0,1,2.92,1.807c1.3,1.582,1.338,1.881,1.338,9.576,0,6.071-.014,6.452-.312,7.409-.774,2.445-3.464,3.844-7.64,3.966A20.307,20.307,0,0,1,152.162,39.2Zm3.728-3.708a2.784,2.784,0,0,0,1.616-1.358c.2-.374.251-.992.251-3.484l.007-3.029H155.8c-2.132,0-2.812.156-3.565.788-.856.72-.978,1.134-.971,3.3a5.387,5.387,0,0,0,.265,2.458,3.667,3.667,0,0,0,1.657,1.426A5.917,5.917,0,0,0,155.89,35.493Z" transform="translate(0 -9.287)" fill="#a1a1a1"/>
</svg>
