<svg xmlns="http://www.w3.org/2000/svg" width="56.322" height="56.322" viewBox="0 0 56.322 56.322">
  <g id="vuesax_bold_shield-tick" data-name="vuesax/bold/shield-tick" transform="translate(-300 -188)">
    <path id="Vector" d="M35.178,5.2,22.271.37a8.165,8.165,0,0,0-4.858,0L4.506,5.2A7.47,7.47,0,0,0,0,11.7V30.713a7.792,7.792,0,0,0,2.769,5.538L15.676,45.9a7.319,7.319,0,0,0,8.284,0l12.907-9.645a7.836,7.836,0,0,0,2.769-5.538V11.7A7.424,7.424,0,0,0,35.178,5.2ZM28,18.346,17.906,28.437a1.756,1.756,0,0,1-2.488,0l-3.755-3.8a1.759,1.759,0,1,1,2.488-2.488l2.535,2.535,8.847-8.847A1.759,1.759,0,1,1,28,18.346Z" transform="translate(308.331 192.465)" fill="#dd3951"/>
    <path id="Vector-2" data-name="Vector" d="M0,0H56.322V56.322H0Z" transform="translate(356.322 244.322) rotate(180)" fill="none" opacity="0"/>
  </g>
</svg>
