<svg id="visual" viewBox="0 0 900 450" width="900" height="450" xmlns="http://www.w3.org/2000/svg" xmlns:xlink="http://www.w3.org/1999/xlink" version="1.1"><path d="M0 278L18.8 264C37.7 250 75.3 222 112.8 213.8C150.3 205.7 187.7 217.3 225.2 225.3C262.7 233.3 300.3 237.7 337.8 249.2C375.3 260.7 412.7 279.3 450.2 277.3C487.7 275.3 525.3 252.7 562.8 233.2C600.3 213.7 637.7 197.3 675.2 197.2C712.7 197 750.3 213 787.8 233.7C825.3 254.3 862.7 279.7 881.3 292.3L900 305L900 0L881.3 0C862.7 0 825.3 0 787.8 0C750.3 0 712.7 0 675.2 0C637.7 0 600.3 0 562.8 0C525.3 0 487.7 0 450.2 0C412.7 0 375.3 0 337.8 0C300.3 0 262.7 0 225.2 0C187.7 0 150.3 0 112.8 0C75.3 0 37.7 0 18.8 0L0 0Z" fill="#DD3951" stroke-linecap="round" stroke-linejoin="miter"></path></svg>