<svg id="visual" viewBox="0 0 2000 1110" width="2000" height="1110" xmlns="http://www.w3.org/2000/svg" xmlns:xlink="http://www.w3.org/1999/xlink" version="1.1"><path d="M0 651L41.7 663C83.3 675 166.7 699 250 652.7C333.3 606.3 416.7 489.7 500 424.7C583.3 359.7 666.7 346.3 750 365.3C833.3 384.3 916.7 435.7 1000 463C1083.3 490.3 1166.7 493.7 1250 515.3C1333.3 537 1416.7 577 1500 591C1583.3 605 1666.7 593 1750 558.3C1833.3 523.7 1916.7 466.3 1958.3 437.7L2000 409L2000 0L1958.3 0C1916.7 0 1833.3 0 1750 0C1666.7 0 1583.3 0 1500 0C1416.7 0 1333.3 0 1250 0C1166.7 0 1083.3 0 1000 0C916.7 0 833.3 0 750 0C666.7 0 583.3 0 500 0C416.7 0 333.3 0 250 0C166.7 0 83.3 0 41.7 0L0 0Z" fill="#DD3951" stroke-linecap="round" stroke-linejoin="miter"></path></svg>