<svg xmlns="http://www.w3.org/2000/svg" width="138.765" height="17.416" viewBox="0 0 138.765 17.416">
  <path id="xvision-svgrepo-com" d="M.037,27.684l4.828-4.3c2.527-2.249,4.608-4.169,4.625-4.273A38.742,38.742,0,0,0,6,15.785L1.61,11.842l-.885-.8H7.316l2.07,1.85c1.139,1.012,2.428,2.157,2.868,2.532l.792.688,2.833-2.544,2.833-2.538h6.632L20.892,15.04c-2.451,2.209-4.452,4.047-4.446,4.105s1.833,1.711,4.065,3.695l4.857,4.319.8.723-3.371.006-3.377.006-3.064-2.769q-1.586-1.466-3.249-2.845a26.631,26.631,0,0,0-3.336,2.764l-3.151,2.85H3.217c-2.908,0-3.371-.029-3.18-.214Zm40.8-.6c-.249-.439-2.128-3.874-4.163-7.626s-3.92-7.181-4.174-7.632l-.457-.809,2.787.046,2.793.04,3.209,6.129c1.763,3.371,3.261,6.186,3.319,6.244s1.526-2.717,3.249-6.169l3.139-6.279H56l-.734,1.353L50.7,20.816l-3.833,7.077H41.29l-.451-.809Zm16.524-7.62V11.033h4.446l.04,7.32.04,7.32,8.031.04,8.031.04.8-.364A2.312,2.312,0,0,0,79.8,21.764c-.809-.954-.96-.983-5.493-1.087-3.33-.075-4.307-.15-4.984-.364-2.66-.844-3.9-2.3-3.885-4.6,0-2.359,1.422-3.874,4.18-4.452.8-.173,3.122-.22,11.471-.22H91.556V27.9H87.1V13.178H79.4l-7.7.006-.786.364a2.4,2.4,0,0,0-1.55,2.07,2.255,2.255,0,0,0,1.266,2.238l.734.463,4.383.081c3.978.075,4.464.116,5.273.416a5.035,5.035,0,0,1,3.417,3.7,4.8,4.8,0,0,1-.63,2.954,6.113,6.113,0,0,1-2.758,2l-.925.347-11.379.046-11.379.046V19.468Zm45.583,8.21c-4.14-.792-6.8-2.931-7.632-6.152a12.159,12.159,0,0,1,.04-4.834,8.693,8.693,0,0,1,6.418-5.84,21.245,21.245,0,0,1,7.788,0c3.18.867,5.533,2.775,6.383,5.175a10.019,10.019,0,0,1-.023,6.4,8.827,8.827,0,0,1-6.256,5.03,21.5,21.5,0,0,1-6.724.22Zm4.411-2.764a5.724,5.724,0,0,0,3.18-1.694c1.116-1.208,1.318-1.839,1.324-4.076,0-1.908-.006-1.948-.538-2.983-.867-1.7-2.4-2.613-4.845-2.891-2.874-.335-5.73,1.162-6.574,3.446a8.832,8.832,0,0,0,.069,4.961C100.975,24.227,104.114,25.6,107.358,24.915ZM119.6,19.463v-8.43l2.336.006,2.336.006,4.984,5.689,4.984,5.683.04-5.7.04-5.7h4.44V27.893h-4.828l-4.909-5.556-4.9-5.556-.04,5.55-.04,5.562H119.6ZM27.234,22.857A3.775,3.775,0,0,1,25.176,19.6a4.109,4.109,0,0,1,1.3-2.544,3.411,3.411,0,0,1,5.6,2.642,3.469,3.469,0,0,1-4.839,3.157Z" transform="translate(0 -10.494)" fill="#a1a1a1"/>
</svg>
